<?xml version="1.0" encoding="utf-8"?>
<!-- Generator: Adobe Illustrator 16.0.0, SVG Export Plug-In . SVG Version: 6.00 Build 0)  -->
<!DOCTYPE svg PUBLIC "-//W3C//DTD SVG 1.1//EN" "http://www.w3.org/Graphics/SVG/1.1/DTD/svg11.dtd">
<svg version="1.1" id="Microsoft" xmlns="http://www.w3.org/2000/svg" xmlns:xlink="http://www.w3.org/1999/xlink" x="0px" y="0px"
	 width="120px" height="91.766px" viewBox="0 0 120 91.766" enable-background="new 0 0 120 91.766" xml:space="preserve">
<rect x="18.183" y="-181.5" width="170" height="130"/>
<g>
	<path d="M16.632,29.134V12.322h4.828c4.708,0,6.148,4.275,6.148,8.406c0,4.131-1.441,8.406-6.245,8.406H16.632z M21.363,25.484
		c1.609,0,2.258-1.657,2.258-4.756c0-3.338-0.648-4.755-2.162-4.755h-0.84v9.511H21.363z"/>
	<path d="M29.289,29.134V12.322h9.343v3.65h-5.355v3.218h4.467v3.507h-4.467v2.786h5.355v3.65H29.289z"/>
	<path d="M43.243,23.97c0.409,1.033,1.297,1.729,2.282,1.729c0.817,0,1.249-0.48,1.249-1.081c0-2.306-6.533-2.834-6.533-7.758
		c0-2.762,2.065-4.875,5.14-4.875c2.378,0,4.179,1.273,5.068,3.626l-3.17,1.874c-0.264-1.105-1.033-1.969-1.969-1.969
		c-0.697,0-1.153,0.48-1.153,1.104c0,2.378,6.604,2.45,6.604,7.806c0,3.146-2.306,5.044-5.38,5.044
		c-2.714,0-4.467-1.489-5.476-3.483L43.243,23.97z"/>
	<path d="M52.274,29.134V12.322h3.987v16.812H52.274z"/>
	<path d="M69.23,19.743c0.024,0.456,0.048,0.84,0.048,1.297c0,4.611-1.057,8.43-5.572,8.43c-4.659,0-5.764-4.54-5.764-8.55
		c0-4.251,0.84-8.935,5.692-8.935c2.882,0,4.274,1.657,5.043,3.891l-3.338,1.562c-0.385-1.297-0.841-1.801-1.634-1.801
		c-1.272,0-1.777,1.321-1.777,5.26c0,3.434,0.601,4.923,1.922,4.923c1.417,0,1.777-1.345,1.873-2.906h-1.585v-3.17H69.23z"/>
	<path d="M78.621,29.134l-2.882-6.437c-0.553-1.225-1.033-2.762-1.033-2.762h-0.048c0,0,0.048,1.609,0.048,2.978v6.221H70.96V12.322
		h4.083l2.617,5.764c0.553,1.201,1.153,2.882,1.153,2.882h0.048c0,0-0.048-1.729-0.048-3.146v-5.5h3.771v16.812H78.621z"/>
	<path d="M18.385,52.837V39.868h-2.474v-3.843h8.958v3.843h-2.474v12.969H18.385z"/>
	<path d="M33.564,52.837v-5.908h-3.026v5.908h-3.987V36.025h3.987v7.061h3.026v-7.061h3.987v16.812H33.564z"/>
	<path d="M39.953,52.837V36.025h3.987v16.812H39.953z"/>
	<path d="M54.003,52.837l-2.882-6.437c-0.553-1.225-1.033-2.762-1.033-2.762h-0.048c0,0,0.048,1.609,0.048,2.978v6.221h-3.747
		V36.025h4.083l2.618,5.764c0.552,1.201,1.153,2.882,1.153,2.882h0.048c0,0-0.048-1.729-0.048-3.146v-5.5h3.771v16.812H54.003z"/>
	<path d="M66.829,52.837l-1.345-4.347c-0.265-0.865-0.505-1.898-0.505-1.898h-0.048l-0.576,1.514v4.731h-3.987V36.025h3.987v3.771
		c0,1.201-0.048,2.714-0.048,2.714h0.048c0,0,0.384-1.249,0.889-2.57l1.513-3.915h4.323l-3.65,7.133l3.65,9.679H66.829z"/>
	<path d="M72.401,52.837V36.025h3.986v16.812H72.401z"/>
	<path d="M86.451,52.837l-2.882-6.437c-0.553-1.225-1.033-2.762-1.033-2.762h-0.048c0,0,0.048,1.609,0.048,2.978v6.221H78.79V36.025
		h4.083l2.617,5.764c0.553,1.201,1.153,2.882,1.153,2.882h0.048c0,0-0.048-1.729-0.048-3.146v-5.5h3.771v16.812H86.451z"/>
	<path d="M103.384,43.447c0.024,0.456,0.048,0.84,0.048,1.297c0,4.611-1.057,8.43-5.572,8.43c-4.659,0-5.764-4.539-5.764-8.55
		c0-4.251,0.841-8.935,5.692-8.935c2.882,0,4.274,1.657,5.043,3.891l-3.338,1.562c-0.385-1.297-0.841-1.801-1.634-1.801
		c-1.272,0-1.777,1.321-1.777,5.26c0,3.434,0.601,4.923,1.922,4.923c1.417,0,1.777-1.345,1.873-2.906h-1.585v-3.17H103.384z"/>
	<path d="M23.213,76.539l-0.24-1.873h-3.098l-0.192,1.873h-4.179l3.603-16.812h4.707l3.603,16.812H23.213z M21.748,66.115
		c-0.144-0.96-0.264-2.329-0.264-2.329h-0.048c0,0-0.144,1.369-0.288,2.329l-0.673,5.044h1.946L21.748,66.115z"/>
	<path d="M29.626,76.539V63.57h-2.474v-3.843h8.958v3.843h-2.474v12.97H29.626z"/>
	<path d="M44.805,76.539v-5.908h-3.026v5.908h-3.987V59.727h3.987v7.062h3.026v-7.062h3.987v16.812H44.805z"/>
	<path d="M51.194,76.539V59.727h3.987v12.97h4.083v3.843H51.194z"/>
	<path d="M60.753,76.539V59.727h9.343v3.651H64.74v3.218h4.467v3.507H64.74v2.786h5.355v3.65H60.753z"/>
	<path d="M74.011,76.539V63.57h-2.474v-3.843h8.958v3.843h-2.474v12.97H74.011z"/>
	<path d="M82.177,76.539V59.727h9.343v3.651h-5.356v3.218h4.468v3.507h-4.468v2.786h5.356v3.65H82.177z"/>
	<path d="M96.131,71.375c0.408,1.033,1.297,1.729,2.282,1.729c0.816,0,1.249-0.48,1.249-1.081c0-2.306-6.533-2.834-6.533-7.757
		c0-2.763,2.065-4.876,5.14-4.876c2.378,0,4.179,1.273,5.067,3.627l-3.17,1.873c-0.265-1.104-1.033-1.97-1.97-1.97
		c-0.696,0-1.152,0.48-1.152,1.105c0,2.377,6.604,2.449,6.604,7.806c0,3.146-2.306,5.043-5.38,5.043
		c-2.714,0-4.467-1.488-5.476-3.482L96.131,71.375z"/>
</g>
</svg>
