<?xml version="1.0" encoding="utf-8"?>
<!-- Generator: Adobe Illustrator 16.0.0, SVG Export Plug-In . SVG Version: 6.00 Build 0)  -->
<!DOCTYPE svg PUBLIC "-//W3C//DTD SVG 1.1//EN" "http://www.w3.org/Graphics/SVG/1.1/DTD/svg11.dtd">
<svg version="1.1" id="Microsoft" xmlns="http://www.w3.org/2000/svg" xmlns:xlink="http://www.w3.org/1999/xlink" x="0px" y="0px"
	 width="120px" height="91.765px" viewBox="25 19.118 120 91.765" enable-background="new 25 19.118 120 91.765"
	 xml:space="preserve">
<rect x="18.183" y="-181.5" width="170" height="130"/>
<g>
	<g>
		<path d="M56.303,60.859h15.5c-0.024,0.331-0.04,0.663-0.041,0.998c-0.009,3.604,1.622,6.895,3.792,9.37v20.198
			C66.47,83.757,59.614,73.439,56.303,60.859z"/>
		<g>
			<path d="M71.762,61.857c0.001-0.335,0.017-0.667,0.041-0.998h-15.5c3.311,12.58,10.167,22.897,19.25,30.566V71.228
				C73.384,68.752,71.753,65.461,71.762,61.857z"/>
		</g>
		<path d="M85.011,101.613l-0.012-0.009l-0.011,0.009l-0.006-0.005v1.454c0.006,0.003,0.013,0.005,0.018,0.009
			c0.007-0.004,0.011-0.006,0.018-0.009v-1.454L85.011,101.613z"/>
		<polygon points="85.011,101.613 85.017,101.608 85.017,101.596 84.999,101.604 		"/>
		<path d="M84.981,103.08c0.006-0.002,0.013-0.005,0.018-0.009c-0.005-0.004-0.011-0.006-0.018-0.009V103.08z"/>
		<path d="M85.017,25.47v-0.042c-0.007,0.006-0.011,0.014-0.018,0.021C85.006,25.455,85.01,25.463,85.017,25.47z"/>
		<path d="M98.237,61.857c0-0.335-0.017-0.667-0.041-0.998h15.5c-3.312,12.58-10.168,22.897-19.251,30.566V71.228
			C96.616,68.752,98.245,65.461,98.237,61.857z"/>
		<polygon points="84.981,101.608 84.988,101.613 84.999,101.604 84.981,101.596 		"/>
		<path d="M117.246,33.472l-0.479-1.998l-1.861,0.869c-2.388,1.114-5.512,1.655-9.544,1.655c-8.657,0-15.499-1.841-19.263-5.188
			l-1.082-0.959V27.82l-0.018,0.017l-0.018-0.017v0.031l-1.079,0.959c-3.767,3.347-10.607,5.188-19.264,5.188
			c-4.034,0-7.156-0.542-9.544-1.655l-1.862-0.869l-0.48,1.998c-1.227,5.105-1.706,9.589-1.462,13.708
			c0.674,11.413,4.111,22.436,9.94,31.88c5.721,9.272,13.665,16.914,22.97,22.099l0.782,0.437l0.018,0.009l0.018-0.009l0.782-0.437
			c9.307-5.185,17.249-12.826,22.972-22.099c5.827-9.444,9.264-20.468,9.939-31.88C118.953,43.062,118.474,38.578,117.246,33.472z
			 M117.033,47.082c-0.165,2.796-0.495,5.543-0.981,8.227H96.673c0.289,0.564,0.544,1.149,0.759,1.757h18.276
			c-0.075,0.364-0.153,0.728-0.235,1.088H97.765c0.152,0.572,0.271,1.159,0.353,1.758h16.935
			c-4.383,17.265-15.322,31.55-30.035,39.761c-0.007,0.004-0.011,0.007-0.018,0.009c-0.005-0.002-0.011-0.005-0.018-0.009
			C70.27,91.462,59.33,77.177,54.947,59.912h16.935c0.083-0.599,0.2-1.186,0.353-1.758H54.526c-0.082-0.361-0.16-0.724-0.236-1.088
			h18.277c0.215-0.607,0.47-1.192,0.758-1.757H53.947c-0.485-2.684-0.816-5.43-0.982-8.227c-0.268-4.537,0.428-9.094,1.419-13.218
			c2.907,1.357,6.515,1.813,10.254,1.813c8.861,0,16.174-1.902,20.343-5.581c0.006-0.006,0.013-0.01,0.018-0.016
			c0.006,0.005,0.011,0.01,0.018,0.016c4.171,3.679,11.483,5.581,20.344,5.581c3.739,0,7.346-0.456,10.254-1.813
			C116.605,37.988,117.301,42.545,117.033,47.082z"/>
		<g>
			<path d="M113.696,60.859h-15.5c0.024,0.331,0.041,0.663,0.041,0.998c0.008,3.604-1.621,6.895-3.792,9.37v20.198
				C103.528,83.757,110.385,73.439,113.696,60.859z"/>
		</g>
		<path d="M84.999,25.449c-0.005-0.006-0.011-0.014-0.018-0.021v0.042C84.988,25.463,84.994,25.455,84.999,25.449z"/>
		<path d="M85.017,103.08v-0.018c-0.007,0.003-0.011,0.005-0.018,0.009C85.006,103.075,85.01,103.078,85.017,103.08z"/>
		<path d="M118.973,27.934l-0.285-1.01l-0.923,0.5c-4.304,2.336-8.523,3.52-12.542,3.52c-9.688,0-15.184-2.068-19.595-7.378
			l-0.611-0.734V22.79l-0.018,0.021l-0.018-0.021v0.042l-0.61,0.734c-4.412,5.31-9.906,7.378-19.596,7.378
			c-4.018,0-8.237-1.184-12.542-3.52l-0.922-0.5l-0.286,1.01c-1.333,4.709-2.856,11.858-2.546,19.162
			c0.529,12.443,4.436,24.534,11.296,34.965c6.396,9.726,14.991,17.579,24.854,22.713l0.351,0.184v0.017l0.002,0.001l0.015-0.009
			l0.016,0.009l0.002-0.001v-0.017l0.352-0.184c9.863-5.134,18.458-12.987,24.855-22.713c6.86-10.432,10.767-22.522,11.297-34.965
			C121.83,39.792,120.307,32.643,118.973,27.934z M119.843,47.024c-0.995,23.391-14.646,45.332-34.826,56.039v0.018
			c-0.007-0.002-0.011-0.005-0.018-0.009c-0.005,0.004-0.011,0.007-0.018,0.009v-0.018c-20.179-10.707-33.83-32.647-34.825-56.039
			c-0.279-6.585,0.986-13.066,2.21-17.634c4.233,2.145,8.403,3.232,12.41,3.232c9.773,0,15.551-2.033,20.205-7.195
			c0.001,0,0.001,0,0.001,0c0.006,0.006,0.013,0.014,0.018,0.021c0.007-0.006,0.011-0.014,0.018-0.021c0,0,0,0,0,0
			c4.655,5.162,10.432,7.195,20.206,7.195c4.006,0,8.177-1.087,12.41-3.232C118.857,33.958,120.122,40.438,119.843,47.024z"/>
	</g>
	<g>
		<path d="M77.312,91.426v-1.458l1.536-0.451V78.146l-1.536-0.479v-1.431h6.44v1.431l-1.535,0.479v4.356h5.567v-4.356l-1.522-0.479
			v-1.431H92.7v1.431l-1.536,0.479v11.371l1.536,0.451v1.458h-6.439v-1.458l1.522-0.451v-4.885h-5.567v4.885l1.535,0.451v1.458
			H77.312z"/>
	</g>
	<g>
		<path d="M57.576,39.375h2.461l-0.375,2.321h1.566l0.375-2.321h2.462l-1.113,6.894H60.49l0.387-2.395h-1.566l-0.386,2.395h-2.462
			L57.576,39.375z"/>
		<path d="M71.619,42.84c-0.359,2.212-2.316,3.538-4.46,3.538c-2.145,0-3.674-1.326-3.317-3.538c0.35-2.167,2.33-3.575,4.465-3.575
			C70.442,39.265,71.968,40.673,71.619,42.84z M66.41,42.875c-0.128,0.789,0.325,1.328,1.099,1.328c0.775,0,1.402-0.539,1.53-1.328
			c0.118-0.73-0.287-1.342-1.099-1.342C67.129,41.533,66.527,42.145,66.41,42.875z"/>
		<path d="M72.485,39.375h2.452l1.677,3.822h0.076c-0.01-0.576-0.026-1.17,0.068-1.756l0.333-2.066h2.443l-1.113,6.894h-2.444
			l-1.662-3.621h-0.075c0.009,0.476,0.009,0.924-0.064,1.381l-0.362,2.24h-2.443L72.485,39.375z"/>
		<path d="M80.113,39.375h2.601c2.358,0,4.003,1.015,3.594,3.548c-0.328,2.048-2.012,3.346-4.072,3.346H79L80.113,39.375z
			 M81.888,44.203h0.158c0.849,0,1.564-0.385,1.71-1.29c0.156-0.969-0.346-1.38-1.278-1.38H82.32L81.888,44.203z"/>
		<path d="M93.716,39.375l-0.657,4.077c-0.325,2.013-1.76,2.927-3.726,2.927c-1.967,0-3.107-0.914-2.782-2.927l0.659-4.077h2.555
			l-0.621,3.841c-0.087,0.539-0.146,1.015,0.536,1.015c0.679,0,0.777-0.476,0.861-1.015l0.621-3.841H93.716z"/>
		<path d="M94.286,39.375h3.086c1.586,0,2.821,0.658,2.541,2.396c-0.168,1.042-0.648,1.482-1.65,1.792l-0.01,0.055
			c0.116,0.099,0.257,0.21,0.363,0.411l1.167,2.24h-2.946l-0.76-2.212H96.03l-0.358,2.212h-2.498L94.286,39.375z M96.292,42.428
			h0.177c0.419,0,0.851-0.064,0.934-0.575c0.084-0.531-0.286-0.596-0.725-0.596H96.48L96.292,42.428z"/>
		<path d="M102.115,46.269h-2.703l3.555-6.894h2.826l1.395,6.894h-2.704l-0.093-0.86h-1.93L102.115,46.269z M104.206,43.772
			l-0.102-1.216c-0.028-0.292-0.025-0.595-0.025-0.887h-0.093l-0.806,2.104H104.206z"/>
		<path d="M108.165,43.799l0.113,0.101c0.401,0.347,0.905,0.63,1.494,0.63c0.251,0,0.668-0.098,0.719-0.41
			c0.05-0.312-0.282-0.339-0.508-0.385l-0.497-0.091c-0.971-0.174-1.718-0.751-1.543-1.829c0.266-1.637,1.931-2.551,3.463-2.551
			c0.8,0,1.507,0.192,2.131,0.604l-0.976,1.764c-0.392-0.292-0.849-0.521-1.396-0.521c-0.225,0-0.566,0.083-0.611,0.365
			c-0.042,0.256,0.27,0.294,0.459,0.339l0.557,0.128c1.044,0.237,1.736,0.803,1.546,1.975c-0.266,1.645-1.926,2.459-3.446,2.459
			c-0.887,0-1.872-0.238-2.603-0.632L108.165,43.799z"/>
	</g>
	<g>
		<g>
			<g>
				<path d="M85.012,50.14c5.772,0,10.72,4.317,11.513,10.043c0.427,3.077-0.373,6.139-2.249,8.616
					c-1.876,2.479-4.604,4.079-7.683,4.506c-0.533,0.072-1.073,0.11-1.606,0.11c-1.359,0-2.695-0.237-3.972-0.705
					c-2.689-0.983-4.914-2.907-6.266-5.418c-0.657-1.221-1.087-2.54-1.278-3.92c-0.122-0.879-0.142-1.781-0.059-2.676
					c0.285-3.074,1.823-5.963,4.217-7.927c1.653-1.354,3.649-2.225,5.773-2.519C83.937,50.178,84.479,50.14,85.012,50.14
					 M85.012,49.72c-0.549,0-1.105,0.039-1.666,0.116c-2.28,0.315-4.323,1.25-5.981,2.611c-2.456,2.012-4.068,4.957-4.37,8.212
					c-0.083,0.903-0.068,1.832,0.062,2.771c0.203,1.466,0.662,2.831,1.323,4.062c1.408,2.613,3.734,4.605,6.493,5.615
					c1.294,0.473,2.682,0.73,4.116,0.73c0.549,0,1.104-0.039,1.664-0.117c6.595-0.912,11.202-6.999,10.29-13.594
					C96.105,54.09,90.939,49.72,85.012,49.72L85.012,49.72z"/>
			</g>
			<g>
				<path d="M94.906,68.534l-0.286,0.022l-2.034,0.161l-0.039,0.001l-0.031,0.021l-0.04,0.029l0.004-0.046
					c0.029-0.445,0.093-1.567,0.006-2.4c-0.087-0.827-0.2-1.723-0.238-2.015l-0.011-0.086l0.054-0.053
					c0.185-0.194,0.838-0.881,1.514-1.634c0.655-0.733,1.142-1.598,1.318-1.935l0.016-0.03l0.021,0.074l0.011,0.038l0.026,0.025
					l1.583,1.499c0,0,0.178,0.167,0.217,0.203C96.894,64.678,96.138,66.776,94.906,68.534z"/>
				<polygon points="82.199,58.165 82.213,58.124 82.214,58.125 87.779,58.139 87.774,58.141 87.801,58.215 89.468,63.296 
					89.484,63.345 89.469,63.339 89.409,63.383 85.087,66.442 85.029,66.485 85.029,66.568 84.986,66.538 80.561,63.366 
					80.504,63.326 80.47,63.336 80.486,63.286 				"/>
				<path d="M83.063,70.117c0.799-0.331,1.649-0.707,1.891-0.817l0.082-0.034l0.067,0.031c0.493,0.236,1.248,0.587,2.041,0.936
					c0.837,0.37,1.741,0.569,2.205,0.652l0.041,0.009l-0.013,0.023l-1.051,2.037l-0.135,0.267c-1.018,0.272-2.086,0.421-3.19,0.417
					c-1.152-0.003-2.267-0.169-3.32-0.47l-0.104-0.25l-0.816-2l-0.015-0.037l-0.033-0.024l-0.035-0.024l0.041-0.01
					C81.062,70.743,82.253,70.458,83.063,70.117z"/>
				<path d="M94.122,56.995l-0.006,0.034l0.006,0.026l-0.045-0.018c-0.525-0.194-1.525-0.547-2.305-0.701
					c-0.859-0.167-1.913-0.42-2.196-0.471l-0.063-0.009l0.007-0.008l-0.047-0.086c-0.17-0.291-0.491-0.963-1.002-1.779
					c-0.539-0.864-1.244-1.689-1.449-1.921l-0.026-0.032h0.161l0.029-0.014l1.887-0.946l0.27-0.134
					c2.108,0.801,3.933,2.17,5.27,3.914l-0.063,0.283L94.122,56.995z"/>
				<path d="M77.757,64.04l0.046,0.05h-0.005l-0.011,0.091c-0.059,0.426-0.174,1.274-0.27,2.171
					c-0.104,0.958,0.01,1.932,0.062,2.308l0.006,0.035l-0.049-0.034l-0.029-0.018l-0.034-0.007l-2.202-0.329l-0.299-0.046
					c-1.175-1.779-1.874-3.888-1.914-6.154l0.214-0.178l1.638-1.345l0.03-0.024l0.005-0.014l0.023,0.04
					c0.236,0.376,0.844,1.318,1.392,1.931C76.892,63.109,77.486,63.754,77.757,64.04z"/>
				<path d="M81.78,53.974c-0.449,0.771-0.91,1.603-0.997,1.763l-0.04,0.07l0.007,0.012l-0.08,0.015
					c-0.342,0.067-1.243,0.246-2.211,0.465c-1.029,0.235-2.001,0.708-2.276,0.85l-0.029,0.014l0.065-0.182l0.013-0.036l-0.006-0.038
					l-0.407-2.171l-0.053-0.283c1.392-1.663,3.239-2.944,5.351-3.663l0.247,0.146l1.802,1.061l0.034,0.021h0.015l-0.03,0.035
					C82.903,52.393,82.194,53.262,81.78,53.974z"/>
				<polygon points="85.026,53.346 85.463,54.666 86.878,54.666 85.734,55.481 86.171,56.802 85.026,55.985 83.882,56.802 
					84.318,55.481 83.173,54.666 84.587,54.666 				"/>
				<polygon points="78.617,58.116 79.054,59.436 80.469,59.436 79.323,60.251 79.761,61.571 78.617,60.756 77.471,61.571 
					77.909,60.251 76.764,59.436 78.179,59.436 				"/>
				<polygon points="91.438,58.116 91.875,59.436 93.289,59.436 92.145,60.251 92.581,61.571 91.438,60.756 90.291,61.571 
					90.73,60.251 89.584,59.436 90.999,59.436 				"/>
				<polygon points="80.766,65.411 81.204,66.73 82.618,66.73 81.474,67.546 81.911,68.866 80.766,68.05 79.62,68.866 
					80.058,67.546 78.914,66.73 80.329,66.73 				"/>
				<polygon points="89.158,65.411 89.593,66.73 91.01,66.73 89.865,67.546 90.303,68.866 89.158,68.05 88.012,68.866 
					88.449,67.546 87.305,66.73 88.72,66.73 				"/>
			</g>
			<path d="M82.822,59.245c-0.583-0.73-3.118-4.71-3.227-4.879l0.237-0.15c0.026,0.041,2.634,4.136,3.208,4.855L82.822,59.245z"/>
			<path d="M87.045,59.215l-0.2-0.196c1.623-1.651,3.197-4.19,3.213-4.215l0.238,0.147C90.28,54.977,88.69,57.542,87.045,59.215z"/>
			<path d="M93.46,64.753c-0.028-0.006-2.973-0.51-5.312-1.854l0.139-0.242c2.296,1.318,5.19,1.815,5.22,1.819L93.46,64.753z"/>
			<path d="M74.847,61.6l-0.273-0.058c0.038-0.187,0.985-4.601,2.556-5.809l0.17,0.223C75.81,57.102,74.855,61.555,74.847,61.6z"/>
			<path d="M76.284,64.674l-0.069-0.271c2.202-0.566,5.599-1.508,5.93-1.778l0.477-0.389l0.176,0.217l-0.476,0.389
				C81.837,63.238,76.851,64.528,76.284,64.674z"/>
			<path d="M88.36,52.583c-2.275-0.937-5.965-0.239-6.002-0.232l-0.053-0.275c0.154-0.03,3.808-0.721,6.163,0.249L88.36,52.583z"/>
			<path d="M95.156,63.231l-0.245-0.138c0.939-1.653-1.365-7.167-1.391-7.223l0.26-0.108C93.877,55.995,96.16,61.461,95.156,63.231z
				"/>
			<path d="M88.23,71.632l-0.11-0.258c0.034-0.015,3.554-1.544,5.167-3.748l0.227,0.164C91.855,70.059,88.377,71.568,88.23,71.632z"
				/>
			<path d="M82.16,71.583c-2.141-0.297-5.489-3.547-5.518-3.716l0.237-0.122c0.033,0.033,3.232,3.271,5.319,3.562L82.16,71.583z"/>
		</g>
		<path d="M84.962,71.261c-0.097-0.93-0.089-5.647-0.089-5.848h0.279c0,0.05-0.007,4.904,0.09,5.82L84.962,71.261z"/>
	</g>
</g>
</svg>
