<?xml version="1.0" encoding="utf-8"?>
<!-- Generator: Adobe Illustrator 16.0.0, SVG Export Plug-In . SVG Version: 6.00 Build 0)  -->
<!DOCTYPE svg PUBLIC "-//W3C//DTD SVG 1.1//EN" "http://www.w3.org/Graphics/SVG/1.1/DTD/svg11.dtd">
<svg version="1.1" id="Microsoft" xmlns="http://www.w3.org/2000/svg" xmlns:xlink="http://www.w3.org/1999/xlink" x="0px" y="0px"
	 width="120px" height="91.765px" viewBox="25 19.118 120 91.765" enable-background="new 25 19.118 120 91.765"
	 xml:space="preserve">
<rect x="18.183" y="-181.5" width="170" height="130"/>
<g>
	<g>
		<path fill="#828184" d="M36.465,54.66c0.242,1.072-0.147,2.136-0.913,2.391c-0.762,0.253-1.625-0.457-1.884-1.603
			c-0.312-1.162,0.514-5.33,0.514-5.33S36.188,53.629,36.465,54.66z"/>
		<path fill="#828184" d="M39.859,58.83c-0.316,0.985-1.169,1.562-1.93,1.217c-0.764-0.34-1.126-1.492-0.779-2.505
			c0.325-1.046,2.969-3.587,2.969-3.587S40.134,57.83,39.859,58.83z"/>
		<path fill="#828184" d="M41.739,63.892c-0.223,1.011-1.009,1.688-1.802,1.444c-0.791-0.244-1.264-1.346-1.013-2.392
			c0.227-1.08,2.625-3.902,2.625-3.902S41.915,62.875,41.739,63.892z"/>
		<path fill="#828184" d="M44.103,68.615c-0.111,1.024-0.814,1.811-1.625,1.682c-0.811-0.127-1.404-1.153-1.262-2.221
			c0.109-1.102,2.22-4.19,2.22-4.19S44.162,67.592,44.103,68.615z"/>
		<path fill="#828184" d="M33.044,61.514c0.848,0.663,1.824,0.458,2.2-0.383c0.373-0.842,0.032-2.001-0.774-2.664
			c-0.809-0.621-4.299-1.641-4.299-1.641S32.164,60.893,33.044,61.514z"/>
		<path fill="#828184" d="M35.227,67.389c0.909,0.562,1.863,0.236,2.148-0.646c0.288-0.885-0.165-1.997-1.029-2.564
			c-0.862-0.524-4.431-1.144-4.431-1.144S34.282,66.871,35.227,67.389z"/>
		<path fill="#828184" d="M38.035,72.997c0.973,0.441,1.88-0.023,2.06-0.942c0.184-0.922-0.39-1.96-1.309-2.415
			c-0.913-0.403-4.528-0.594-4.528-0.594S37.028,72.612,38.035,72.997z"/>
		<path fill="#828184" d="M46.975,72.865c0.009,1.023-0.568,1.911-1.391,1.929c-0.815,0.011-1.533-0.909-1.524-1.983
			c-0.033-1.108,1.717-4.453,1.717-4.453S46.895,71.855,46.975,72.865z"/>
		<path fill="#828184" d="M41.549,78.193c1.024,0.289,1.865-0.33,1.916-1.266c0.055-0.947-0.645-1.884-1.615-2.193
			c-0.957-0.252-4.578,0.058-4.578,0.058S40.485,77.982,41.549,78.193z"/>
		<path fill="#828184" d="M55.49,84.834c-5.018-2.154-9.394-5.985-12.683-10.692c-3.312-4.706-5.656-10.175-7.255-15.85
			c-0.057-0.21,0.032-0.428,0.202-0.484l0,0c0.169-0.057,0.354,0.064,0.41,0.27l0,0c1.579,5.607,3.894,11,7.148,15.621
			c3.231,4.622,7.505,8.361,12.413,10.469c0.179,0.079,0.274,0.293,0.211,0.478l0,0C55.875,84.83,55.674,84.914,55.49,84.834
			L55.49,84.834z"/>
	</g>
	<g>
		<path fill="#828184" d="M51.951,49.771c-0.306,0.721-0.958,1.126-1.497,0.888c-0.537-0.239-0.738-1.096-0.404-1.886
			c0.309-0.843,2.529-2.738,2.529-2.738S52.207,49.052,51.951,49.771z"/>
		<path fill="#828184" d="M52.232,53.791c-0.562,0.399-1.289,0.333-1.598-0.233c-0.32-0.565-0.065-1.415,0.531-1.818
			c0.614-0.445,3.134-0.494,3.134-0.494S52.767,53.348,52.232,53.791z"/>
		<path fill="#828184" d="M51.469,57.549c-0.496,0.492-1.221,0.559-1.61,0.058c-0.398-0.499-0.272-1.382,0.264-1.884
			c0.533-0.552,3.019-1.016,3.019-1.016S51.93,57.012,51.469,57.549z"/>
		<path fill="#828184" d="M51.277,61.383c-0.418,0.581-1.117,0.779-1.581,0.357c-0.459-0.417-0.479-1.313-0.021-1.907
			c0.447-0.644,2.828-1.552,2.828-1.552S51.651,60.766,51.277,61.383z"/>
		<path fill="#828184" d="M47.217,52.039c0.229,0.825,0.878,1.171,1.428,0.854c0.542-0.324,0.812-1.166,0.614-1.961
			c-0.212-0.76-1.749-3.174-1.749-3.174S46.932,51.22,47.217,52.039z"/>
		<path fill="#828184" d="M46.265,56.729c0.346,0.776,1.039,0.998,1.536,0.582c0.486-0.418,0.627-1.296,0.326-2.051
			c-0.329-0.712-2.169-2.849-2.169-2.849S45.86,55.97,46.265,56.729z"/>
		<path fill="#828184" d="M46.022,61.542c0.454,0.703,1.177,0.79,1.598,0.291c0.426-0.504,0.426-1.397,0.017-2.086
			c-0.427-0.639-2.559-2.415-2.559-2.415S45.511,60.873,46.022,61.542z"/>
		<path fill="#828184" d="M51.651,65.216c-0.326,0.651-0.992,0.973-1.506,0.638c-0.518-0.33-0.663-1.211-0.3-1.881
			c0.346-0.717,2.56-2.057,2.56-2.057S51.933,64.535,51.651,65.216z"/>
		<path fill="#828184" d="M46.489,66.318c0.551,0.607,1.273,0.57,1.622-0.001c0.345-0.573,0.215-1.455-0.288-2.056
			c-0.515-0.553-2.879-1.905-2.879-1.905S45.89,65.756,46.489,66.318z"/>
		<path fill="#828184" d="M52.777,76.448c-2.216-3.625-3.626-7.821-4.161-12.159c-0.533-4.341-0.051-8.823,1.335-12.917
			c0.049-0.151,0.19-0.229,0.312-0.179l0,0c0.121,0.055,0.172,0.213,0.125,0.363l0,0c-2.826,8.053-1.565,17.515,2.771,24.593
			c0.081,0.126,0.063,0.295-0.038,0.385l0,0C53.02,76.619,52.863,76.583,52.777,76.448L52.777,76.448z"/>
	</g>
	<g>
		<path fill="#828184" d="M134.99,49.922c0,0,0.824,4.167,0.516,5.33c-0.26,1.145-1.123,1.856-1.886,1.602
			c-0.766-0.253-1.155-1.318-0.914-2.389C132.986,53.433,134.99,49.922,134.99,49.922z"/>
		<path fill="#828184" d="M129.055,53.76c0,0,2.643,2.54,2.97,3.585c0.349,1.013-0.017,2.165-0.78,2.505
			c-0.76,0.347-1.612-0.229-1.93-1.216C129.039,57.634,129.055,53.76,129.055,53.76z"/>
		<path fill="#828184" d="M127.623,58.847c0,0,2.4,2.825,2.624,3.902c0.253,1.044-0.221,2.147-1.01,2.391
			c-0.794,0.245-1.58-0.433-1.803-1.444C127.259,62.679,127.623,58.847,127.623,58.847z"/>
		<path fill="#828184" d="M125.738,63.692c0,0,2.112,3.086,2.219,4.188c0.143,1.069-0.45,2.095-1.262,2.223
			c-0.813,0.128-1.514-0.659-1.625-1.683C125.01,67.396,125.738,63.692,125.738,63.692z"/>
		<path fill="#828184" d="M139.004,56.633c0,0-3.494,1.018-4.3,1.638c-0.807,0.663-1.148,1.823-0.775,2.665
			c0.377,0.842,1.354,1.046,2.199,0.383C137.009,60.697,139.004,56.633,139.004,56.633z"/>
		<path fill="#828184" d="M137.257,62.838c0,0-3.567,0.621-4.431,1.143c-0.863,0.569-1.314,1.679-1.028,2.565
			c0.287,0.884,1.238,1.211,2.149,0.648C134.891,66.676,137.257,62.838,137.257,62.838z"/>
		<path fill="#828184" d="M134.916,68.852c0,0-3.617,0.189-4.53,0.592c-0.917,0.455-1.49,1.495-1.31,2.418
			c0.183,0.917,1.088,1.381,2.063,0.939C132.146,72.417,134.916,68.852,134.916,68.852z"/>
		<path fill="#828184" d="M123.396,68.161c0,0,1.749,3.345,1.716,4.454c0.011,1.073-0.708,1.995-1.523,1.983
			c-0.822-0.017-1.398-0.905-1.388-1.93C122.278,71.661,123.396,68.161,123.396,68.161z"/>
		<path fill="#828184" d="M131.899,74.597c0,0-3.62-0.312-4.576-0.056c-0.972,0.309-1.67,1.246-1.615,2.192
			c0.051,0.938,0.891,1.556,1.914,1.265C128.688,77.788,131.899,74.597,131.899,74.597z"/>
		<path fill="#828184" d="M113.683,84.64c-0.186,0.081-0.384-0.005-0.446-0.189l0,0c-0.062-0.187,0.032-0.4,0.212-0.479
			c4.905-2.106,9.182-5.846,12.412-10.467c3.254-4.621,5.569-10.015,7.147-15.622l0,0c0.057-0.208,0.24-0.328,0.409-0.269l0,0
			c0.172,0.057,0.262,0.273,0.203,0.483c-1.6,5.674-3.943,11.144-7.256,15.85C123.077,78.652,118.701,82.482,113.683,84.64
			L113.683,84.64z"/>
	</g>
	<g>
		<path fill="#828184" d="M115.812,46.034c0,0,2.22,1.896,2.528,2.738c0.336,0.79,0.135,1.646-0.403,1.886
			c-0.54,0.239-1.188-0.167-1.497-0.888C116.188,49.052,115.812,46.034,115.812,46.034z"/>
		<path fill="#828184" d="M114.092,51.246c0,0,2.522,0.049,3.134,0.494c0.597,0.404,0.854,1.253,0.533,1.818
			c-0.312,0.566-1.035,0.633-1.598,0.233C115.625,53.348,114.092,51.246,114.092,51.246z"/>
		<path fill="#828184" d="M115.25,54.707c0,0,2.487,0.464,3.019,1.016c0.537,0.502,0.663,1.385,0.265,1.884
			c-0.39,0.501-1.115,0.434-1.611-0.058C116.462,57.012,115.25,54.707,115.25,54.707z"/>
		<path fill="#828184" d="M115.89,58.281c0,0,2.38,0.908,2.828,1.552c0.457,0.593,0.438,1.489-0.022,1.907
			c-0.464,0.422-1.162,0.224-1.579-0.357C116.741,60.766,115.89,58.281,115.89,58.281z"/>
		<path fill="#828184" d="M120.88,47.757c0,0-1.535,2.414-1.748,3.174c-0.197,0.795,0.072,1.637,0.613,1.961
			c0.552,0.318,1.202-0.028,1.431-0.854C121.46,51.22,120.88,47.757,120.88,47.757z"/>
		<path fill="#828184" d="M122.435,52.412c0,0-1.84,2.136-2.17,2.849c-0.302,0.754-0.16,1.633,0.327,2.051
			c0.497,0.416,1.188,0.194,1.535-0.582C122.532,55.97,122.435,52.412,122.435,52.412z"/>
		<path fill="#828184" d="M123.313,57.333c0,0-2.133,1.775-2.558,2.415c-0.409,0.688-0.412,1.582,0.015,2.086
			c0.421,0.499,1.145,0.412,1.6-0.291C122.883,60.873,123.313,57.333,123.313,57.333z"/>
		<path fill="#828184" d="M115.988,61.917c0,0,2.213,1.34,2.56,2.057c0.361,0.67,0.217,1.551-0.302,1.881
			c-0.514,0.335-1.178,0.013-1.505-0.638C116.461,64.535,115.988,61.917,115.988,61.917z"/>
		<path fill="#828184" d="M123.449,62.356c0,0-2.364,1.352-2.879,1.905c-0.503,0.602-0.633,1.483-0.288,2.056
			c0.348,0.571,1.072,0.608,1.62,0.001C122.502,65.756,123.449,62.356,123.449,62.356z"/>
		<path fill="#828184" d="M115.613,76.448c-0.083,0.135-0.243,0.171-0.344,0.085l0,0c-0.101-0.09-0.117-0.259-0.034-0.385
			c4.333-7.078,5.594-16.54,2.767-24.593l0,0c-0.045-0.15,0.006-0.308,0.128-0.363l0,0c0.117-0.05,0.262,0.028,0.31,0.179
			c1.386,4.095,1.87,8.576,1.334,12.917C119.241,68.627,117.83,72.823,115.613,76.448L115.613,76.448z"/>
	</g>
	<g>
		<path d="M84.075,34.353c-17.14,0-31.033,13.894-31.033,31.033c0,17.141,13.894,31.032,31.033,31.032
			c17.14,0,31.033-13.892,31.033-31.032C115.107,48.247,101.215,34.353,84.075,34.353z M84.075,87.734
			c-12.233,0-22.151-9.92-22.151-22.154c0-12.233,9.918-22.15,22.151-22.15c12.235,0,22.153,9.917,22.153,22.15
			C106.228,77.814,96.31,87.734,84.075,87.734z"/>
	</g>
	<g>
		<polyline fill="none" stroke="#B2B2B2" points="67.096,69.817 83.564,64.181 66.333,63.223 		"/>
		<polyline fill="none" stroke="#B2B2B2" points="68.146,56.471 83.774,63.848 72.092,51.167 		"/>
		<polyline fill="none" stroke="#B2B2B2" points="75.627,80.339 83.645,64.568 70.453,76.024 		"/>
		<polyline fill="none" stroke="#B2B2B2" points="70.333,75.876 83.565,64.383 67.154,70 		"/>
		<polyline fill="none" stroke="#B2B2B2" points="66.348,63.033 83.636,63.995 68.062,56.644 		"/>
		<polyline fill="none" stroke="#B2B2B2" points="72.232,51.037 83.957,63.766 77.865,47.534 		"/>
		<polyline fill="none" stroke="#B2B2B2" points="84.809,46.299 84.348,63.824 91.399,47.672 		"/>
		<polyline fill="none" stroke="#B2B2B2" points="78.044,47.464 84.158,63.757 84.617,46.295 		"/>
		<polyline fill="none" stroke="#B2B2B2" points="100.688,58.338 84.975,65 101.5,65 		"/>
		<polyline fill="none" stroke="#B2B2B2" points="101.5,65 84.508,65 84.306,64.771 84.235,64.436 84.269,64.345 84.226,64.262 
			84.251,64.217 84.195,64.112 84.093,64 84,64 84,64.102 84.017,64.123 84.041,64.086 84.016,64.129 83.999,64.102 84.005,64.158 
			84,63.937 84,64 83.908,64 83.928,64.16 83.891,64.22 83.934,64.293 83.905,64.329 83.96,64.364 83.945,64.398 84.004,64.405 
			84.002,64.444 84.06,64.426 84.071,64.462 84.119,64.421 84.141,64.452 84.172,64.397 99.802,73.501 		"/>
		<polyline fill="none" stroke="#B2B2B2" points="91.575,47.747 84.497,63.957 97.212,51.535 		"/>
		<polyline fill="none" stroke="#B2B2B2" points="97.35,51.669 84.586,64.137 101.179,57.349 		"/>
		<polyline fill="none" stroke="#B2B2B2" points="100.275,73.404 84.36,64.718 95.776,78.67 		"/>
		<polyline fill="none" stroke="#B2B2B2" points="89.299,81.98 83.972,64.788 82.46,82.524 		"/>
		<polyline fill="none" stroke="#B2B2B2" points="82.272,82.502 83.787,64.71 75.795,80.431 		"/>
		<polyline fill="none" stroke="#B2B2B2" points="95.626,78.79 84.174,64.792 89.482,81.927 		"/>
		<polyline fill="none" stroke="#B2B2B2" points="97.212,51.535 84.497,63.957 91.575,47.747 		"/>
		<polyline fill="none" stroke="#B2B2B2" points="91.399,47.672 84.348,63.824 84.809,46.299 		"/>
		<polyline fill="none" stroke="#B2B2B2" points="84.617,46.295 84.158,63.757 78.044,47.464 		"/>
		<polyline fill="none" stroke="#B2B2B2" points="77.865,47.534 83.957,63.766 72.232,51.037 		"/>
		<polyline fill="none" stroke="#B2B2B2" points="72.092,51.167 83.774,63.848 68.146,56.471 		"/>
		<polyline fill="none" stroke="#B2B2B2" points="68.062,56.644 83.636,63.995 66.348,63.033 		"/>
		<polyline fill="none" stroke="#B2B2B2" points="66.333,63.223 83.564,64.181 67.096,69.817 		"/>
		<polyline fill="none" stroke="#B2B2B2" points="67.154,70 83.565,64.383 70.333,75.876 		"/>
		<polyline fill="none" stroke="#B2B2B2" points="70.453,76.024 83.645,64.568 75.627,80.339 		"/>
		<polyline fill="none" stroke="#B2B2B2" points="75.795,80.431 83.787,64.71 82.272,82.502 		"/>
		<polyline fill="none" stroke="#B2B2B2" points="82.46,82.524 83.972,64.788 89.299,81.98 		"/>
		<polyline fill="none" stroke="#B2B2B2" points="89.482,81.927 84.174,64.792 95.626,78.79 		"/>
		<polyline fill="none" stroke="#B2B2B2" points="95.776,78.67 84.36,64.718 100.275,73.404 		"/>
		<polyline fill="none" stroke="#B2B2B2" points="99.802,73.748 84.092,65 84.102,65 84.098,64.696 84.06,64.599 84.055,64.495 
			83.998,64.479 84.004,64.425 83.943,64.414 83.96,64.374 83.905,64.343 83.934,64.319 83.891,64.271 83.928,64.16 83.908,64 
			83.945,64 83.948,64.039 83.982,64.106 84.008,64.077 84.034,64.116 84.078,64.08 84.017,64.119 84,64.101 84,64.137 
			84.136,64.138 84.158,64.172 84.233,64.197 84.216,64.223 84.265,64.268 84.233,64.282 84.305,64.771 84.508,65 101.5,65 		"/>
		<polyline fill="none" stroke="#B2B2B2" points="103.5,65 84.975,65 100.674,58.338 		"/>
		<polyline fill="none" stroke="#B2B2B2" points="101.179,57.349 84.586,64.137 97.35,51.669 		"/>
	</g>
	<g id="_x37_RgNQO.tif_7_">
		<g>
			<g>
				<g>
					<path fill="none" d="M74.256,73.431c0.184,0.185,0.458,0.206,0.618,0.049l8.082-8.036c0.156-0.154,0.135-0.431-0.048-0.613
						c-0.184-0.182-0.461-0.202-0.617-0.047l-8.082,8.035C74.051,72.975,74.074,73.25,74.256,73.431z"/>
					<path fill="none" d="M84.016,66.501l-8.08,8.035c-0.158,0.155-0.136,0.432,0.048,0.612c0.183,0.184,0.458,0.203,0.617,0.049
						l8.082-8.037c0.156-0.155,0.136-0.43-0.048-0.613C84.451,66.365,84.175,66.346,84.016,66.501z"/>
				</g>
				<path fill="none" d="M92.059,73.047c-0.855,0.85-0.855,2.228,0,3.078c0.854,0.848,2.24,0.848,3.093,0
					c0.854-0.851,0.854-2.229,0-3.078C94.299,72.196,92.912,72.196,92.059,73.047z"/>
				<path fill="none" d="M91.067,71.744c0.895-0.891,0.895-2.332,0-3.221l-8.778-8.727c-0.896-0.89-2.345-0.89-3.239,0
					c-0.894,0.889-0.894,2.331,0,3.219l8.779,8.729C88.725,72.632,90.172,72.632,91.067,71.744z M79.48,63.024
					c-0.857-0.853-0.919-2.169-0.143-2.942c0.777-0.773,2.103-0.709,2.959,0.141l8.412,8.362c0.854,0.852,0.921,2.171,0.143,2.944
					c-0.776,0.772-2.103,0.707-2.959-0.145L79.48,63.024z"/>
				<path d="M90.852,71.53c0.778-0.773,0.712-2.091-0.143-2.944l-8.412-8.362c-0.857-0.851-2.182-0.914-2.959-0.141
					c-0.778,0.773-0.714,2.091,0.143,2.942l8.412,8.362C88.749,72.238,90.075,72.303,90.852,71.53z"/>
				<path d="M77.093,61.713l14.082,14.001c1.074,1.067,2.814,1.067,3.887,0c1.072-1.065,1.072-2.797,0-3.863l-14.083-14
					c0.17-1.328-0.252-2.719-1.278-3.74c-1.232-1.224-3-1.588-4.552-1.097c0.904,0.898,1.603,1.611,1.824,1.83
					c0.788,0.782,0.973,1.864,0.418,2.418l-0.89,0.882c-0.557,0.554-1.646,0.368-2.433-0.414c-0.22-0.218-0.936-0.914-1.842-1.813
					c-0.492,1.544-0.126,3.301,1.105,4.525C74.358,61.464,75.755,61.883,77.093,61.713z M94.522,75.178
					c-0.854,0.85-2.241,0.85-3.095,0c-0.854-0.849-0.854-2.228,0-3.078c0.854-0.847,2.24-0.847,3.095,0
					C95.376,72.949,95.376,74.329,94.522,75.178z M79.05,63.016c-0.894-0.889-0.894-2.331,0-3.219c0.894-0.89,2.343-0.89,3.239,0
					l8.779,8.727c0.894,0.889,0.894,2.33,0,3.221c-0.896,0.888-2.344,0.888-3.239,0L79.05,63.016z"/>
				<path d="M77.055,76.585l7.103-7.06l-0.925-0.92l-6.632,6.592c-0.159,0.154-0.433,0.135-0.617-0.049
					c-0.184-0.181-0.206-0.457-0.048-0.612l6.63-6.593l-1.062-1.058l-6.63,6.595c-0.157,0.156-0.434,0.135-0.618-0.048
					c-0.182-0.183-0.205-0.458-0.047-0.613l6.63-6.593l-0.927-0.922l-7.102,7.062c-0.688,0.682-0.294,2.182,0.879,3.347
					C74.862,76.878,76.368,77.271,77.055,76.585z"/>
				<polygon points="87.668,63.624 90.052,61.251 92.038,60.724 95.878,55.279 94.244,53.653 88.769,57.474 88.236,59.445 
					85.85,61.817 				"/>
			</g>
			
				<circle fill-rule="evenodd" clip-rule="evenodd" fill="none" stroke="#989898" stroke-width="3" cx="84.15" cy="65.676" r="19.388"/>
		</g>
	</g>
	<polygon fill-rule="evenodd" clip-rule="evenodd" fill="#828184" points="113.877,79.12 119.846,79.922 117.226,82.542 
		119.117,85.307 113.004,84.869 	"/>
	<polygon fill-rule="evenodd" clip-rule="evenodd" fill="#828184" points="56.396,84.732 50.552,86.303 51.947,82.866 
		49.161,81.071 54.964,79.095 	"/>
	<g>
		<g>
			<path fill="#828184" d="M114.5,82.5c-20.271-2.238-40.728-2.238-61,0c-0.512-4.639-1.024-9.277-1.536-13.915
				c21.292-2.352,42.779-2.352,64.072,0C115.524,73.223,115.012,77.861,114.5,82.5z"/>
			<g>
				<path fill="#FFFFFF" d="M66.245,72.815c-0.058,0.365-0.116,0.729-0.173,1.094c-0.73,0.046-1.459,0.095-2.189,0.146
					c-0.276,1.854-0.544,3.709-0.804,5.563c-0.706,0.053-1.411,0.108-2.116,0.166c0.438-3.299,0.9-6.597,1.387-9.894
					c-1.108,0.127-1.923,0.839-1.741,3.037c0.064,0.785,0.214,0.949,0.301,1.103c-1.063,0.087-1.635-0.228-1.731-1.334
					c-0.167-1.873,1.257-3.873,4.67-4.114c1.055-0.073,1.723,0.06,2.746-0.003c0.504-0.03,0.96-0.101,1.38-0.254
					c-0.267,1.564-0.891,1.805-1.59,1.848c-0.562,0.034-1.224-0.056-1.901-0.142c-0.148,0.976-0.293,1.952-0.437,2.929
					C64.78,72.909,65.512,72.861,66.245,72.815z"/>
				<path fill="#FFFFFF" d="M70.106,71.871c-0.056,0.31-0.111,0.619-0.166,0.929c0.545-0.567,1.189-1.05,1.793-1.076
					c0.68-0.028,1.064,0.497,1.085,1.052c0.02,0.512-0.304,1.078-1.038,1.109c-0.84,0.037-0.461-0.9-0.912-0.88
					c-0.376,0.018-0.696,0.266-1.069,0.636c-0.308,1.867-0.608,3.735-0.901,5.604c-0.706,0.038-1.412,0.078-2.118,0.122
					c0.37-2.461,0.754-4.922,1.151-7.382C68.657,71.943,69.382,71.905,70.106,71.871z"/>
				<path fill="#FFFFFF" d="M75.886,77.814c1.168-0.033,1.861-0.69,2.588-1.538c0.169-0.004,0.337-0.007,0.506-0.01
					c-0.825,1.359-2.045,2.74-4,2.803c-1.382,0.045-2.321-0.587-2.39-2.236c-0.072-1.659,0.764-5.186,3.872-5.271
					c1.346-0.035,1.677,0.633,1.691,1.361c0.03,1.65-1.583,2.953-3.361,3.113c-0.008,0.205-0.016,0.41-0.011,0.585
					C74.814,77.613,75.176,77.835,75.886,77.814z M76.603,72.331c-0.755,0.02-1.448,1.56-1.714,3.001
					c1.159-0.11,2.132-1.229,2.105-2.412C76.985,72.555,76.889,72.323,76.603,72.331z"/>
				<path fill="#FFFFFF" d="M84.775,76.223c-0.775,0.875-1.587,1.432-2.265,1.829c-0.617,0.645-1.556,0.888-2.307,0.898
					c-1.5,0.021-2.17-0.94-2.19-1.832c-0.014-0.672,0.347-1.177,0.761-1.373c0.808-1.461,1.329-2.914,1.78-4.351
					c0.745-0.105,1.49-0.209,2.237-0.31c0.197,3.781,0.346,4.351,0.349,5.314c0,0.204-0.014,0.38-0.058,0.555
					c0.4-0.235,0.786-0.498,1.068-0.732C84.359,76.222,84.567,76.223,84.775,76.223z M79.197,76.979
					c-0.148,0.003-0.327-0.038-0.404-0.183c0.013,0.688,0.271,1.017,0.921,1.007c0.65-0.011,1.282-0.352,1.272-1.374
					c-0.009-0.76-0.147-1.211-0.323-3.458c-0.29,0.953-0.697,1.834-1.174,2.776c0.195,0.085,0.346,0.258,0.35,0.506
					C79.844,76.604,79.583,76.973,79.197,76.979z"/>
				<path fill="#FFFFFF" d="M87.927,72.832c-0.498-0.007-0.909,0.5-1.141,1.155c-0.37,1.617-0.734,3.235-1.093,4.854
					c-0.707-0.004-1.414-0.006-2.121-0.004c0.707-3.312,1.439-6.62,2.196-9.925c0.753-0.093,1.507-0.183,2.261-0.27
					c-0.291,1.218-0.58,2.436-0.865,3.654c0.656-0.68,1.31-0.786,1.778-0.777c0.968,0.017,1.668,0.515,1.64,1.683
					c-0.029,1.183-0.783,2.934-0.799,3.751c-0.008,0.365,0.135,0.616,0.579,0.626c0.252,0.006,0.4-0.021,0.49-0.075
					c-0.159,1.047-0.876,1.482-1.655,1.469c-1.134-0.021-1.477-0.842-1.466-1.674c0.012-0.994,0.708-2.779,0.725-3.714
					C88.464,73.104,88.287,72.837,87.927,72.832z"/>
			</g>
			<g>
				<path fill="#FFFFFF" d="M98.744,72.507c-0.099,0.355-0.198,0.711-0.296,1.067c-0.631-0.032-1.262-0.062-1.892-0.09
					c-0.486,1.811-0.964,3.622-1.435,5.435c-0.707-0.027-1.414-0.053-2.12-0.076c0.812-3.227,1.647-6.45,2.508-9.671
					c-0.056-0.002-0.111-0.004-0.167-0.006c-1.237-0.049-2.141,0.522-2.216,2.946c-0.023,0.744,0.169,0.867,0.179,0.998
					c-1.036-0.033-1.599-0.411-1.57-1.463c0.047-1.937,1.535-3.772,5.321-3.608c1.041,0.047,2.143,0.394,3.518,0.472
					c0.657,0.038,1.394,0.009,2.233-0.142c-0.282,1.021-0.815,2.215-2.028,2.144c-1.243-0.071-1.899-0.604-3.148-0.985
					c-0.264,0.962-0.525,1.925-0.785,2.888C97.479,72.443,98.111,72.474,98.744,72.507z M101.741,71.945
					c-0.464,1.629-0.923,3.26-1.374,4.892c-0.056,0.187-0.079,0.331-0.087,0.463c-0.023,0.408,0.161,0.55,0.575,0.575
					c0.576,0.034,1.144-0.485,1.414-1.2c0.208,0.014,0.415,0.027,0.623,0.041c-1.005,2.318-2.474,2.55-3.27,2.507
					c-0.882-0.05-1.547-0.609-1.486-1.834c0.014-0.277,0.074-0.596,0.166-0.942c0.416-1.544,0.837-3.086,1.264-4.628
					C100.292,71.858,101.017,71.9,101.741,71.945z"/>
				<path fill="#FFFFFF" d="M107.889,77.11c0.083,0.96,0.231,1.294,0.749,1.34c0.28,0.024,0.386,0.005,0.554-0.038
					c-0.17,1.054-1.061,1.414-1.867,1.348c-0.867-0.072-1.379-0.874-1.539-2.673c-0.745,0.762-1.484,1.527-2.218,2.296
					c-0.354-0.024-0.707-0.049-1.06-0.072c1.063-1.042,2.139-2.077,3.226-3.106c-0.037-0.55-0.075-1.1-0.113-1.649
					c-0.075-0.987-0.209-1.231-0.479-1.251c-0.586-0.044-1.572,1.043-2.253,3.412c-0.208-0.014-0.416-0.027-0.623-0.041
					c0.597-2.126,1.842-4.652,3.87-4.497c1.208,0.094,1.412,1.109,1.485,1.862c0.031,0.359,0.062,0.718,0.092,1.077
					c0.866-0.821,1.358-1.407,1.436-1.943c-0.092,0.006-0.184,0.013-0.259,0.007c-0.526-0.046-0.676-0.425-0.638-0.876
					c0.042-0.495,0.544-0.672,1.088-0.624c0.561,0.05,0.784,0.774,0.727,1.399c-0.082,0.902-0.814,1.595-2.276,2.908
					C107.822,76.362,107.855,76.736,107.889,77.11z"/>
			</g>
		</g>
	</g>
	<circle fill="none" cx="84.344" cy="65.353" r="23.618"/>
	<text transform="matrix(0.5716 -0.8205 0.8205 0.5716 63.9121 53.3589)"><tspan x="0" y="0" fill="#FFFFFF" font-family="'ITCFranklinGothicStd-Demi'" font-size="5.8555">P</tspan><tspan x="3.517" y="0.041" fill="#FFFFFF" font-family="'ITCFranklinGothicStd-Demi'" font-size="5.8555" rotate="6.509">r</tspan><tspan x="5.389" y="0.218" fill="#FFFFFF" font-family="'ITCFranklinGothicStd-Demi'" font-size="5.8555" rotate="12.443">o</tspan><tspan x="8.373" y="0.869" fill="#FFFFFF" font-family="'ITCFranklinGothicStd-Demi'" font-size="5.8555" rotate="19.805">d</tspan><tspan x="11.227" y="1.887" fill="#FFFFFF" font-family="'ITCFranklinGothicStd-Demi'" font-size="5.8555" rotate="27.146">u</tspan><tspan x="13.933" y="3.267" fill="#FFFFFF" font-family="'ITCFranklinGothicStd-Demi'" font-size="5.8555" rotate="34.54">c</tspan><tspan x="16.441" y="4.983" fill="#FFFFFF" font-family="'ITCFranklinGothicStd-Demi'" font-size="5.8555" rotate="41.957">e</tspan><tspan x="18.706" y="7.009" fill="#FFFFFF" font-family="'ITCFranklinGothicStd-Demi'" font-size="5.8555" rotate="49.339">d</tspan><tspan x="20.66" y="9.346" fill="#FFFFFF" font-family="'ITCFranklinGothicStd-Demi'" font-size="5.8555" rotate="54.207"> </tspan><tspan x="21.667" y="10.695" fill="#FFFFFF" font-family="'ITCFranklinGothicStd-Demi'" font-size="5.8555" rotate="60.665">b</tspan><tspan x="23.151" y="13.339" fill="#FFFFFF" font-family="'ITCFranklinGothicStd-Demi'" font-size="5.8555" rotate="67.601">y</tspan><tspan x="24.167" y="15.857" fill="#FFFFFF" font-family="'ITCFranklinGothicStd-Demi'" font-size="5.8555" rotate="72.948"> </tspan><tspan x="24.698" y="17.455" fill="#FFFFFF" font-family="'ITCFranklinGothicStd-Demi'" font-size="5.8555" rotate="78.768">n</tspan><tspan x="25.296" y="20.421" fill="#FFFFFF" font-family="'ITCFranklinGothicStd-Demi'" font-size="5.8555" rotate="86.119">a</tspan><tspan x="25.483" y="23.463" fill="#FFFFFF" font-family="'ITCFranklinGothicStd-Demi'" font-size="5.8555" rotate="92.359">t</tspan><tspan x="25.426" y="25.585" fill="#FFFFFF" font-family="'ITCFranklinGothicStd-Demi'" font-size="5.8555" rotate="98.602">u</tspan><tspan x="24.942" y="28.612" fill="#FFFFFF" font-family="'ITCFranklinGothicStd-Demi'" font-size="5.8555" rotate="104.577">r</tspan><tspan x="24.498" y="30.462" fill="#FFFFFF" font-family="'ITCFranklinGothicStd-Demi'" font-size="5.8555" rotate="110.578">e</tspan></text>
	<circle fill="none" cx="84.343" cy="65.353" r="26.704"/>
	<text transform="matrix(0.7499 0.6616 -0.6616 0.7499 63.7344 85.6416)"><tspan x="0" y="0" fill="#FFFFFF" font-family="'ITCFranklinGothicStd-Demi'" font-size="6.2459">D</tspan><tspan x="4.434" y="-0.048" fill="#FFFFFF" font-family="'ITCFranklinGothicStd-Demi'" font-size="6.2459" rotate="-8.064">e</tspan><tspan x="7.961" y="-0.599" fill="#FFFFFF" font-family="'ITCFranklinGothicStd-Demi'" font-size="6.2459" rotate="-13.456">l</tspan><tspan x="9.678" y="-1.014" fill="#FFFFFF" font-family="'ITCFranklinGothicStd-Demi'" font-size="6.2459" rotate="-16.99">i</tspan><tspan x="11.421" y="-1.524" fill="#FFFFFF" font-family="'ITCFranklinGothicStd-Demi'" font-size="6.2459" rotate="-21.981">v</tspan><tspan x="14.44" y="-2.747" fill="#FFFFFF" font-family="'ITCFranklinGothicStd-Demi'" font-size="6.2459" rotate="-28.824">e</tspan><tspan x="17.549" y="-4.507" fill="#FFFFFF" font-family="'ITCFranklinGothicStd-Demi'" font-size="6.2459" rotate="-34.66">r</tspan><tspan x="19.505" y="-5.835" fill="#FFFFFF" font-family="'ITCFranklinGothicStd-Demi'" font-size="6.2459" rotate="-40.555">e</tspan><tspan x="22.258" y="-8.211" fill="#FFFFFF" font-family="'ITCFranklinGothicStd-Demi'" font-size="6.2459" rotate="-47.734">d</tspan><tspan x="24.624" y="-10.885" fill="#FFFFFF" font-family="'ITCFranklinGothicStd-Demi'" font-size="6.2459" rotate="-53.32"> </tspan><tspan x="25.891" y="-12.542" fill="#FFFFFF" font-family="'ITCFranklinGothicStd-Demi'" font-size="6.2459" rotate="-58.955">b</tspan><tspan x="27.754" y="-15.693" fill="#FFFFFF" font-family="'ITCFranklinGothicStd-Demi'" font-size="6.2459" rotate="-65.883">y</tspan><tspan x="29.023" y="-18.612" fill="#FFFFFF" font-family="'ITCFranklinGothicStd-Demi'" font-size="6.2459" rotate="-71.121"> </tspan><tspan x="29.724" y="-20.576" fill="#FFFFFF" font-family="'ITCFranklinGothicStd-Demi'" font-size="6.2459" rotate="-76.77">u</tspan><tspan x="30.537" y="-24.138" fill="#FFFFFF" font-family="'ITCFranklinGothicStd-Demi'" font-size="6.2459" rotate="-83.734">s</tspan></text>
</g>
</svg>
