<?xml version="1.0" encoding="utf-8"?>
<!-- Generator: Adobe Illustrator 16.0.0, SVG Export Plug-In . SVG Version: 6.00 Build 0)  -->
<!DOCTYPE svg PUBLIC "-//W3C//DTD SVG 1.1//EN" "http://www.w3.org/Graphics/SVG/1.1/DTD/svg11.dtd">
<svg version="1.1" id="Microsoft" xmlns="http://www.w3.org/2000/svg" xmlns:xlink="http://www.w3.org/1999/xlink" x="0px" y="0px"
	 width="120px" height="91.766px" viewBox="0 0 120 91.766" enable-background="new 0 0 120 91.766" xml:space="preserve">
<rect x="18.183" y="-181.5" width="170" height="130"/>
<g>
	<path d="M19.327,41.909c2.017,0,2.689,0.994,2.689,2.483v7.657c-1.724,0.613-4.413,1.228-7.51,1.228
		c-5.99,0-8.562-4.354-8.562-10.257c0-7.248,4.471-10.52,8.913-10.52c2.688,0,5.23,0.848,7.101,2.104
		c-0.117,1.168-0.993,2.337-1.812,2.864c-1.432-1.023-3.273-1.666-5.085-1.666c-2.98,0-5.085,2.046-5.085,7.248
		c0,4.822,1.842,7.072,5.231,7.072c1.198,0,2.221-0.146,3.098-0.351v-2.602c0-0.642,0-1.285,0.059-1.928h-1.987
		c-1.286,0-1.87-0.468-1.87-1.666c0-0.526,0.117-1.169,0.292-1.636L19.327,41.909z"/>
	<path d="M28.062,46.848c0.117,1.987,0.76,3.448,2.98,3.448c1.403,0,2.718-0.439,3.945-0.994c0.584,0.584,0.964,1.549,1.081,2.309
		c-1.461,1.052-3.565,1.666-5.611,1.666c-4.909,0-6.283-3.683-6.283-7.598c0-4.383,1.958-7.715,6.312-7.715
		c3.828,0,5.961,2.688,5.961,6.195c0,1.14-0.088,1.783-0.321,2.689H28.062z M28.033,44.159h4.851v-0.351
		c0-1.695-0.672-3.098-2.396-3.098C28.91,40.711,28.15,41.938,28.033,44.159z"/>
	<path d="M47.084,39.688c0,0.497-0.059,0.935-0.175,1.402l-3.536-0.058v7.686c0,0.847,0.35,1.344,1.257,1.344h1.812
		c0.175,0.526,0.292,1.227,0.292,1.841c0,0.292,0,0.614-0.088,0.848c-0.994,0.146-2.367,0.264-3.507,0.264
		c-2.338,0-3.507-1.141-3.507-3.566v-8.387l-2.221,0.029c-0.117-0.467-0.146-0.906-0.146-1.402c0-0.438,0.029-0.876,0.146-1.344
		l2.221,0.029v-2.104c0-1.695,0.526-2.338,2.075-2.338h1.461l0.205,0.175v4.296l3.536-0.059
		C47.026,38.811,47.084,39.249,47.084,39.688z"/>
	<path d="M60.204,53.102c-1.374-0.146-2.25-0.79-2.776-1.667c-1.022,0.994-2.425,1.842-4.324,1.842
		c-2.952,0-4.384-2.279-4.384-4.384c0-3.419,2.63-4.938,5.698-4.938c0.672,0,1.578,0,2.455,0.088v-0.79
		c0-1.519-0.73-2.22-2.163-2.22c-1.344,0-2.922,0.496-4.442,1.022c-0.555-0.614-0.906-1.753-0.994-2.718
		c1.812-0.76,4.471-1.315,6.4-1.315c2.688,0,4.997,1.432,4.997,4.938v5.991c0,0.964,0.204,1.695,0.818,2.163
		C61.314,51.815,60.73,52.721,60.204,53.102z M56.873,49.098v-2.542c-0.73-0.059-1.52-0.088-2.104-0.088
		c-1.52,0-2.28,0.847-2.28,2.191c0,0.964,0.585,1.724,1.637,1.724C55.003,50.383,56.025,49.945,56.873,49.098z"/>
	<path d="M62.687,38.577c0.79-0.322,1.521-0.468,2.163-0.468c1.14,0,1.606,0.556,1.812,1.607l1.11,5.377
		c0.381,1.842,0.702,3.653,0.847,4.705c0.059,0.204,0.088,0.233,0.234,0.233l2.017-11.572c0.613-0.117,1.754-0.176,2.25-0.176
		c0.497,0,1.695,0.059,2.25,0.176l2.017,11.338c0.029,0.204,0.059,0.233,0.233,0.233c0.264-1.52,0.556-3.185,0.906-4.938
		l1.461-6.721c0.409-0.117,1.023-0.175,1.52-0.175c0.556,0,1.462,0.058,1.988,0.321l0.115,0.234l-3.506,14.115
		c-0.76,0.117-1.929,0.146-2.835,0.146c-1.461,0-2.221-0.234-2.483-1.841l-0.643-3.596c-0.264-1.49-0.644-3.711-0.936-5.786h-0.176
		c-0.291,2.046-0.7,4.267-0.964,5.756l-0.994,5.319c-0.817,0.117-2.016,0.146-2.95,0.146c-1.375,0-2.134-0.322-2.514-1.899
		L62.687,38.577z"/>
	<path d="M96.232,53.102c-1.374-0.146-2.25-0.79-2.776-1.667c-1.023,0.994-2.426,1.842-4.325,1.842
		c-2.951,0-4.383-2.279-4.383-4.384c0-3.419,2.63-4.938,5.698-4.938c0.672,0,1.577,0,2.454,0.088v-0.79
		c0-1.519-0.73-2.22-2.162-2.22c-1.344,0-2.923,0.496-4.442,1.022c-0.555-0.614-0.905-1.753-0.992-2.718
		c1.812-0.76,4.47-1.315,6.399-1.315c2.688,0,4.996,1.432,4.996,4.938v5.991c0,0.964,0.205,1.695,0.818,2.163
		C97.343,51.815,96.758,52.721,96.232,53.102z M92.9,49.098v-2.542c-0.73-0.059-1.519-0.088-2.104-0.088
		c-1.52,0-2.279,0.847-2.279,2.191c0,0.964,0.584,1.724,1.636,1.724C91.03,50.383,92.053,49.945,92.9,49.098z"/>
	<path d="M108.387,52.458c-1.169,4.179-2.63,6.809-6.867,6.809c-1.023,0-2.455-0.292-3.186-0.555
		c-0.088-0.878,0.292-2.134,0.789-2.719c0.556,0.176,1.549,0.409,2.426,0.409c1.694,0,2.601-1.139,3.155-2.98l0.117-0.379
		c-1.402-0.029-2.308-0.438-2.658-1.696l-3.625-12.682c0.819-0.38,1.726-0.556,2.338-0.556c0.936,0,1.55,0.38,1.899,1.666
		l1.667,6.166c0.32,1.139,0.642,3.01,0.847,4.062c0.029,0.176,0.117,0.205,0.263,0.205l2.864-11.835
		c0.438-0.117,1.052-0.175,1.549-0.175c0.672,0,1.344,0.058,2.017,0.292l0.146,0.233L108.387,52.458z"/>
</g>
</svg>
