<?xml version="1.0" encoding="utf-8"?>
<!-- Generator: Adobe Illustrator 16.0.0, SVG Export Plug-In . SVG Version: 6.00 Build 0)  -->
<!DOCTYPE svg PUBLIC "-//W3C//DTD SVG 1.1//EN" "http://www.w3.org/Graphics/SVG/1.1/DTD/svg11.dtd">
<svg version="1.1" id="Microsoft" xmlns="http://www.w3.org/2000/svg" xmlns:xlink="http://www.w3.org/1999/xlink" x="0px" y="0px"
	 width="120px" height="91.765px" viewBox="25 19.118 120 91.765" enable-background="new 25 19.118 120 91.765"
	 xml:space="preserve">
<rect x="18.183" y="-181.5" width="170" height="130"/>
<g>
	<g>
		<defs>
			<rect id="SVGID_1_" x="37.828" y="42.11" width="29.781" height="29.779"/>
		</defs>
		<clipPath id="SVGID_2_">
			<use xlink:href="#SVGID_1_"  overflow="visible"/>
		</clipPath>
		<path clip-path="url(#SVGID_2_)" fill="#001716" d="M57.632,48.371c-0.295-0.264-0.639-0.419-1.036-0.455
			c0.33,0.125,0.626,0.355,0.932,0.568C57.569,48.432,57.605,48.392,57.632,48.371"/>
		<path clip-path="url(#SVGID_2_)" fill="#001716" d="M57.632,48.371c0.018,0.015,0.035,0.027,0.051,0.041
			C57.688,48.354,57.669,48.346,57.632,48.371"/>
		<path clip-path="url(#SVGID_2_)" fill="#001716" d="M57.59,49.033C57.473,48.942,57.464,49.028,57.59,49.033"/>
		<path clip-path="url(#SVGID_2_)" fill="#001716" d="M55.374,46.799C55.261,46.365,55.247,46.799,55.374,46.799"/>
		<path clip-path="url(#SVGID_2_)" fill="#001716" d="M45.445,56.975c0.436,0.221,0.669,0.449,1.24,0.248
			C46.521,56.664,45.693,56.475,45.445,56.975"/>
		<path clip-path="url(#SVGID_2_)" fill="#001716" d="M58.334,48.908c-0.292-0.082-0.553-0.248-0.807-0.424
			c-0.06,0.073-0.13,0.17-0.201,0.272c0.184,0.177,0.425,0.403,0.264,0.276C57.856,49.387,58.104,49.346,58.334,48.908"/>
		<path clip-path="url(#SVGID_2_)" fill="#001716" d="M57.155,48.572c-0.106,0.227-0.168,0.461-0.186,0.708
			c0.038-0.042,0.198-0.294,0.356-0.523C57.22,48.654,57.134,48.566,57.155,48.572"/>
		<path clip-path="url(#SVGID_2_)" fill="#001716" d="M51.868,43.943c0.848-0.123,0.169-0.024-0.004,0
			c-0.205-0.039-0.411-0.081-0.617-0.123c0.311,1.419,1.077-0.42,1.613,0.496c-0.329,0.048-0.485,1.689-0.17,2.739
			c0.149,0.494,0.401,0.858,0.792,0.86c0.01-0.369,0.133-0.642,0.31-0.86c0.651-0.817,2.033-0.892,1.116-2.346
			C54.345,43.812,52.958,43.785,51.868,43.943"/>
		<path clip-path="url(#SVGID_2_)" d="M52.719,42.11c-8.211,0-14.891,6.68-14.891,14.89c0,8.211,6.68,14.892,14.891,14.892
			c8.21,0,14.891-6.681,14.891-14.892C67.609,48.79,60.929,42.11,52.719,42.11 M62.501,51.881c-0.898,0.109-2.416,0.258-2.407,0.254
			c-0.154,0.47-0.483,0.635-0.992,0.497c0.035,0.825-0.562,1.889-0.91,2.663c-0.024,0.055-0.048,0.107-0.069,0.158
			c-0.135,0.316-0.23,0.696-0.289,1.097c-0.088,0.61-0.083,1.272,0.038,1.859c0.031,0.148,0.068,0.292,0.115,0.428
			c0.595,0.675,1.299,1.213,2.107,1.612c0.698-0.156,1.44-0.748,2.2-0.989c0.016-0.004,0.031-0.011,0.047-0.014
			c0.365-0.111,0.733-0.135,1.104,0.01c-0.042-0.049,0.06,0.625,0.166,1.259c0.005,0.025,0.009,0.052,0.014,0.074
			c0.075,0.452,0.151,0.869,0.174,0.97c-0.363,1.885-1.055,3.542-1.524,5.016c-0.006,0.016-0.01,0.032-0.017,0.048
			c-0.03,0.1-0.063,0.201-0.092,0.299c-1.508,1.406-3.327,2.484-5.343,3.111c-0.037,0.013-0.076,0.021-0.113,0.033
			c-0.53,0.159-1.072,0.286-1.627,0.382c-0.769,0.133-1.557,0.205-2.363,0.205c-0.843,0-1.668-0.08-2.47-0.224
			c-0.323-0.445-0.373-0.777-0.312-1.095c0.068-0.354,0.271-0.688,0.381-1.142c1.416,0.895,3.477-2.645,4.097-3.351
			c1.27-1.449-0.85-2.52-2.317-2.755c-0.438-0.068-0.819-0.066-1.034,0.023c0.689-2.091-4.064-2.464-4.345-3.724
			c-0.048,0.225-1.616,0.284-1.75,0.201c-0.353-0.222-0.68-0.689-0.95-1.178c-0.222-0.404-0.405-0.822-0.525-1.132
			c0.201-0.037,0.438-0.761,0.489-1.098c0.683,0.165,0.777,1.395,1.589,0.974c-0.487-0.291-0.827-1.303-1.58-1.06
			c0.001-0.021,0.001-0.043-0.003-0.059c-0.736-0.199-1.082,1.342-1.459-0.139c-0.166-0.655,0.09-2.088,0.964-2.218
			c1.218,0.86,1.105,0.644,2.11,1.985c0.19-0.55,0.779-2.248,1.579-2.992c0.245-0.106,0.466-0.203,0.605-0.27
			c0.116-0.049,0.235-0.1,0.364-0.154c0.689-0.359,1.369-0.197,2.166-0.68c-0.791-0.02-0.424-0.604-0.744-0.992
			c0.089-0.012,1.492-0.148,1.612-0.124c-0.205,0.248-0.412,0.496-0.62,0.744c0.008,0.001,1.076,0.306,1.088,0.126
			c-0.021-0.685-0.944-1.912-0.854-2.621c0.011-0.086,0.033-0.168,0.077-0.235c-0.069,0.036-0.142,0.067-0.214,0.1
			c-0.133,0.057-0.267,0.108-0.407,0.149c0.071-0.18,0.099-0.332,0.092-0.466c-0.009-0.169-0.079-0.302-0.217-0.395
			c-0.078-0.054-0.179-0.095-0.301-0.123c-0.013-0.003-0.024-0.007-0.038-0.01c-0.033,0.027-0.075,0.074-0.122,0.133
			c-0.39,0.481-1.229,1.884-1.594,1.853c-0.198-0.717-0.256-1.354-0.02-1.853c0.173-0.363,0.502-0.653,1.051-0.847
			c0.175-0.062,0.368-0.113,0.59-0.154c-0.404,0.212-0.404,0.419,0,0.619c0.17-0.572,0.543-0.945,1.118-1.115
			c0.055,0.543-0.192,0.873-0.745,0.992c0.227,0.135,0.418,0.305,0.577,0.505c0.061,0.075,0.117,0.154,0.168,0.238
			c0.039-0.058,0.127-0.14,0.229-0.238c0.259-0.247,0.609-0.591,0.513-0.882c-0.547-1.649-0.098-0.957-1.609-0.615
			c0.069-0.34,0.271-0.564,0.603-0.675c0.011-0.009,0.02-0.021,0.024-0.032c0.064,0.005,0.175-0.031,0.333-0.162
			c-0.472-0.145-0.789-0.441-0.955-0.891c-0.006-0.035-0.009-0.068-0.005-0.104c-0.01,0.007-0.019,0.012-0.028,0.017
			c-0.001-0.007-0.003-0.01-0.005-0.017c-0.012,0.014-0.021,0.027-0.033,0.038c-0.344,0.208-0.694,0.4-1.052,0.583
			c0.003-0.125,0.014-0.248,0.028-0.373c1.325-0.42,2.736-0.65,4.2-0.65c1.781,0,3.484,0.342,5.049,0.955
			c0.043,0.096,0.066,0.201,0.066,0.316c-1.641-0.085-1.399,1.781-0.604,2.491c0.123,0.108,0.259,0.191,0.403,0.235
			c0.023-0.057,1.191-0.574,0.883,0.376c-0.138-0.214-0.303-0.255-0.497-0.124c0.931,0.332,0.063,1.764-0.248,2.358
			c1.851-0.094,0.203,0.89-0.123,1.117c-0.012,2.708,1.378,0.771,1.83-0.125c1.277-0.438,1.211,0.452,1.488,0.993
			c1.28,0.084-0.355-1.346-0.345-1.489c0.515,0.261,1.011,0.55,1.49,0.868c-0.064-0.193,0.332-1.283,0.499-1.364
			c0.154,0.022,0.974,0.699,0.869-0.124c0.168,0.149,0.289,0.287,0.373,0.414c0.537,0.82-0.529,1.224-1.242,1.57
			C63.388,51.758,63.064,51.812,62.501,51.881 M47.406,69.793c-3.373-1.405-6.074-4.107-7.479-7.479
			c-0.66-1.586-1.033-3.316-1.057-5.131c0-0.062-0.005-0.121-0.005-0.183c0-3.967,1.68-7.549,4.362-10.077h0.152
			c-1.771,2.224-2.759,5.071-2.299,7.372c0.186,0.934,0.842,2.143,1.564,3.105c0.588,0.783,1.221,1.404,1.684,1.582
			c0.869,1.531-1.344,4.129,0.91,5.543c0.387,0.243,0.875,1.586,1.51,2.979c0.209,0.459,0.436,0.924,0.678,1.354
			c0.272,0.482,0.563,0.923,0.881,1.271C48.004,70.026,47.702,69.916,47.406,69.793"/>
	</g>
</g>
<text transform="matrix(1 0 0 1 72 71.125)" font-family="'ITCFranklinGothicStd-Demi'" font-size="40.7748">ISS</text>
<text transform="matrix(1 0 0 1 37.8271 84.6973)" font-family="'ITCFranklinGothicStd-Demi'" font-size="11.7872">THE NEW SCHOOL</text>
</svg>
