<?xml version="1.0" encoding="utf-8"?>
<!-- Generator: Adobe Illustrator 16.0.0, SVG Export Plug-In . SVG Version: 6.00 Build 0)  -->
<!DOCTYPE svg PUBLIC "-//W3C//DTD SVG 1.1//EN" "http://www.w3.org/Graphics/SVG/1.1/DTD/svg11.dtd">
<svg version="1.1" id="Microsoft" xmlns="http://www.w3.org/2000/svg" xmlns:xlink="http://www.w3.org/1999/xlink" x="0px" y="0px"
	 width="120px" height="91.766px" viewBox="0 0 120 91.766" enable-background="new 0 0 120 91.766" xml:space="preserve">
<rect x="18.183" y="-181.5" width="170" height="130"/>
<g>
	<g>
		<g>
			<g>
				<defs>
					<rect id="SVGID_1_" x="11.357" y="24.53" width="29.781" height="29.779"/>
				</defs>
				<clipPath id="SVGID_2_">
					<use xlink:href="#SVGID_1_"  overflow="visible"/>
				</clipPath>
				<path clip-path="url(#SVGID_2_)" fill="#001716" d="M31.161,30.791c-0.295-0.264-0.639-0.419-1.036-0.455
					c0.33,0.125,0.626,0.355,0.932,0.568C31.098,30.852,31.134,30.812,31.161,30.791"/>
			</g>
			<g>
				<defs>
					<rect id="SVGID_3_" x="11.357" y="24.53" width="29.781" height="29.779"/>
				</defs>
				<clipPath id="SVGID_4_">
					<use xlink:href="#SVGID_3_"  overflow="visible"/>
				</clipPath>
				<path clip-path="url(#SVGID_4_)" fill="#001716" d="M31.161,30.791c0.018,0.015,0.035,0.027,0.051,0.041
					C31.217,30.774,31.198,30.766,31.161,30.791"/>
			</g>
			<g>
				<defs>
					<rect id="SVGID_5_" x="11.357" y="24.53" width="29.781" height="29.779"/>
				</defs>
				<clipPath id="SVGID_6_">
					<use xlink:href="#SVGID_5_"  overflow="visible"/>
				</clipPath>
				<path clip-path="url(#SVGID_6_)" fill="#001716" d="M31.119,31.453C31.002,31.362,30.993,31.448,31.119,31.453"/>
			</g>
			<g>
				<defs>
					<rect id="SVGID_7_" x="11.357" y="24.53" width="29.781" height="29.779"/>
				</defs>
				<clipPath id="SVGID_8_">
					<use xlink:href="#SVGID_7_"  overflow="visible"/>
				</clipPath>
				<path clip-path="url(#SVGID_8_)" fill="#001716" d="M28.903,29.219C28.791,28.785,28.776,29.219,28.903,29.219"/>
			</g>
			<g>
				<defs>
					<rect id="SVGID_9_" x="11.357" y="24.53" width="29.781" height="29.779"/>
				</defs>
				<clipPath id="SVGID_10_">
					<use xlink:href="#SVGID_9_"  overflow="visible"/>
				</clipPath>
				<path clip-path="url(#SVGID_10_)" fill="#001716" d="M18.974,39.395c0.436,0.221,0.669,0.448,1.24,0.248
					C20.05,39.084,19.222,38.895,18.974,39.395"/>
			</g>
			<g>
				<defs>
					<rect id="SVGID_11_" x="11.357" y="24.53" width="29.781" height="29.779"/>
				</defs>
				<clipPath id="SVGID_12_">
					<use xlink:href="#SVGID_11_"  overflow="visible"/>
				</clipPath>
				<path clip-path="url(#SVGID_12_)" fill="#001716" d="M31.863,31.328c-0.292-0.082-0.553-0.248-0.807-0.424
					c-0.06,0.073-0.13,0.17-0.201,0.271c0.184,0.178,0.425,0.403,0.264,0.276C31.385,31.807,31.633,31.766,31.863,31.328"/>
			</g>
			<g>
				<defs>
					<rect id="SVGID_13_" x="11.357" y="24.53" width="29.781" height="29.779"/>
				</defs>
				<clipPath id="SVGID_14_">
					<use xlink:href="#SVGID_13_"  overflow="visible"/>
				</clipPath>
				<path clip-path="url(#SVGID_14_)" fill="#001716" d="M30.684,30.992c-0.106,0.227-0.168,0.461-0.186,0.708
					c0.038-0.042,0.198-0.294,0.356-0.523C30.75,31.074,30.663,30.986,30.684,30.992"/>
			</g>
			<g>
				<defs>
					<rect id="SVGID_15_" x="11.357" y="24.53" width="29.781" height="29.779"/>
				</defs>
				<clipPath id="SVGID_16_">
					<use xlink:href="#SVGID_15_"  overflow="visible"/>
				</clipPath>
				<path clip-path="url(#SVGID_16_)" fill="#001716" d="M25.397,26.363c0.848-0.123,0.169-0.024-0.004,0
					c-0.205-0.039-0.411-0.081-0.617-0.123c0.311,1.419,1.077-0.42,1.613,0.496c-0.329,0.048-0.485,1.688-0.17,2.739
					c0.149,0.493,0.401,0.857,0.792,0.859c0.01-0.369,0.133-0.642,0.31-0.859c0.651-0.817,2.033-0.893,1.116-2.347
					C27.875,26.232,26.487,26.205,25.397,26.363"/>
			</g>
			<g>
				<defs>
					<rect id="SVGID_17_" x="11.357" y="24.53" width="29.781" height="29.779"/>
				</defs>
				<clipPath id="SVGID_18_">
					<use xlink:href="#SVGID_17_"  overflow="visible"/>
				</clipPath>
				<path clip-path="url(#SVGID_18_)" d="M26.249,24.53c-8.211,0-14.891,6.68-14.891,14.89s6.68,14.892,14.891,14.892
					c8.21,0,14.89-6.682,14.89-14.892S34.459,24.53,26.249,24.53 M36.03,34.301c-0.897,0.109-2.416,0.259-2.407,0.254
					c-0.154,0.471-0.483,0.636-0.992,0.497c0.035,0.825-0.562,1.89-0.91,2.663c-0.024,0.056-0.048,0.107-0.069,0.158
					c-0.135,0.316-0.23,0.696-0.289,1.097c-0.088,0.61-0.083,1.272,0.038,1.859c0.031,0.148,0.068,0.292,0.115,0.428
					c0.595,0.676,1.299,1.213,2.107,1.612c0.698-0.156,1.44-0.748,2.2-0.989c0.017-0.004,0.031-0.011,0.047-0.014
					c0.365-0.111,0.733-0.135,1.104,0.01c-0.043-0.049,0.06,0.625,0.166,1.259c0.005,0.025,0.009,0.053,0.014,0.074
					c0.075,0.452,0.15,0.869,0.174,0.97c-0.363,1.886-1.055,3.541-1.523,5.016c-0.006,0.016-0.01,0.033-0.018,0.049
					c-0.029,0.1-0.062,0.201-0.092,0.299c-1.508,1.406-3.327,2.484-5.343,3.111c-0.037,0.012-0.076,0.02-0.113,0.033
					c-0.53,0.158-1.072,0.285-1.627,0.381c-0.769,0.133-1.557,0.205-2.363,0.205c-0.843,0-1.668-0.08-2.47-0.225
					c-0.323-0.443-0.373-0.775-0.312-1.094c0.068-0.354,0.271-0.688,0.381-1.143c1.416,0.895,3.477-2.645,4.097-3.352
					c1.27-1.448-0.85-2.519-2.317-2.754c-0.438-0.068-0.819-0.065-1.034,0.023c0.689-2.092-4.064-2.464-4.345-3.725
					c-0.048,0.226-1.616,0.284-1.75,0.201c-0.353-0.222-0.68-0.688-0.95-1.178c-0.222-0.404-0.405-0.822-0.525-1.132
					c0.201-0.037,0.438-0.762,0.489-1.099c0.683,0.165,0.777,1.396,1.589,0.975c-0.487-0.291-0.827-1.304-1.58-1.061
					c0.001-0.021,0.001-0.043-0.003-0.059c-0.736-0.199-1.082,1.342-1.459-0.139c-0.166-0.655,0.09-2.089,0.964-2.219
					c1.218,0.86,1.105,0.645,2.11,1.985c0.19-0.55,0.779-2.248,1.579-2.992c0.245-0.105,0.466-0.203,0.605-0.27
					c0.116-0.05,0.235-0.101,0.364-0.154c0.689-0.359,1.369-0.197,2.166-0.68c-0.791-0.021-0.424-0.604-0.744-0.992
					c0.089-0.012,1.492-0.148,1.612-0.124c-0.205,0.248-0.412,0.496-0.62,0.744c0.008,0.001,1.076,0.306,1.088,0.126
					c-0.021-0.686-0.944-1.912-0.854-2.621c0.011-0.086,0.033-0.168,0.077-0.235c-0.069,0.036-0.142,0.067-0.214,0.101
					c-0.133,0.057-0.267,0.107-0.407,0.148c0.071-0.18,0.099-0.332,0.092-0.466c-0.009-0.169-0.079-0.302-0.217-0.396
					c-0.078-0.054-0.179-0.095-0.301-0.122c-0.013-0.004-0.024-0.008-0.038-0.011c-0.033,0.027-0.075,0.074-0.122,0.133
					c-0.39,0.481-1.229,1.885-1.594,1.854c-0.198-0.717-0.256-1.354-0.02-1.854c0.173-0.362,0.502-0.652,1.051-0.847
					c0.175-0.062,0.368-0.113,0.59-0.154c-0.404,0.213-0.404,0.419,0,0.619c0.17-0.571,0.543-0.944,1.118-1.114
					c0.055,0.543-0.192,0.872-0.745,0.991c0.227,0.136,0.418,0.306,0.577,0.505c0.061,0.075,0.117,0.154,0.168,0.238
					c0.039-0.058,0.127-0.14,0.229-0.238c0.259-0.246,0.609-0.591,0.513-0.882c-0.547-1.648-0.098-0.957-1.609-0.614
					c0.069-0.341,0.271-0.564,0.603-0.676c0.011-0.009,0.02-0.021,0.024-0.031c0.064,0.005,0.175-0.031,0.333-0.162
					c-0.472-0.146-0.789-0.441-0.955-0.892c-0.006-0.035-0.009-0.067-0.005-0.104c-0.01,0.007-0.019,0.012-0.028,0.017
					c-0.001-0.007-0.003-0.01-0.005-0.017c-0.012,0.014-0.021,0.026-0.033,0.038c-0.344,0.208-0.694,0.399-1.052,0.583
					c0.003-0.125,0.014-0.248,0.028-0.373c1.325-0.42,2.736-0.65,4.2-0.65c1.781,0,3.484,0.342,5.049,0.955
					c0.043,0.096,0.066,0.201,0.066,0.316c-1.641-0.085-1.399,1.78-0.604,2.49c0.123,0.108,0.259,0.191,0.403,0.235
					c0.023-0.057,1.191-0.574,0.883,0.376c-0.138-0.214-0.303-0.255-0.497-0.124c0.931,0.332,0.063,1.764-0.248,2.358
					c1.851-0.095,0.203,0.89-0.123,1.117c-0.012,2.708,1.378,0.771,1.83-0.125c1.278-0.438,1.211,0.451,1.489,0.992
					c1.279,0.084-0.355-1.346-0.346-1.488c0.516,0.261,1.012,0.55,1.49,0.867c-0.064-0.192,0.332-1.282,0.499-1.363
					c0.153,0.021,0.974,0.699,0.868-0.124c0.168,0.148,0.289,0.287,0.373,0.414c0.537,0.819-0.528,1.224-1.241,1.569
					C36.918,34.177,36.594,34.232,36.03,34.301 M20.935,52.212c-3.373-1.404-6.074-4.105-7.479-7.478
					c-0.66-1.586-1.033-3.316-1.057-5.131c0-0.062-0.005-0.121-0.005-0.184c0-3.967,1.68-7.549,4.362-10.077h0.152
					c-1.771,2.225-2.759,5.071-2.299,7.372c0.186,0.935,0.842,2.144,1.564,3.105c0.588,0.783,1.221,1.404,1.684,1.582
					c0.869,1.531-1.344,4.129,0.91,5.542c0.387,0.244,0.875,1.586,1.51,2.979c0.209,0.459,0.436,0.926,0.678,1.355
					c0.272,0.48,0.563,0.922,0.881,1.27C21.533,52.446,21.231,52.335,20.935,52.212"/>
			</g>
		</g>
	</g>
	<g enable-background="new    ">
		<path d="M54.703,53.544H48.18V25.576h6.523V53.544z"/>
		<path d="M74.437,33.566c-0.815-2.364-2.323-3.302-4.811-3.302c-1.753,0-3.874,0.448-3.874,2.609c0,2.038,2.447,2.527,4.037,2.813
			c2.283,0.488,5.341,1.06,7.298,2.364c2.283,1.509,3.669,3.833,3.669,6.604c0,2.731-1.305,5.341-3.465,7.013
			c-2.242,1.754-5.301,2.283-8.113,2.283c-5.26,0-10.03-2.283-11.294-7.746l6.034-1.386c0.815,2.935,2.936,3.954,5.83,3.954
			c1.875,0,4.362-0.693,4.362-3.017c0-2.324-3.18-2.772-4.893-3.14c-4.974-1.02-9.866-2.487-9.866-8.603
			c0-2.609,1.019-4.893,3.017-6.564c2.039-1.713,4.444-2.283,7.013-2.283c4.893,0,8.889,1.713,10.601,6.564L74.437,33.566z"/>
		<path d="M98.901,33.566c-0.815-2.364-2.324-3.302-4.812-3.302c-1.753,0-3.873,0.448-3.873,2.609c0,2.038,2.446,2.527,4.036,2.813
			c2.283,0.488,5.341,1.06,7.298,2.364c2.283,1.509,3.67,3.833,3.67,6.604c0,2.731-1.305,5.341-3.466,7.013
			c-2.242,1.754-5.3,2.283-8.113,2.283c-5.26,0-10.03-2.283-11.294-7.746l6.034-1.386c0.815,2.935,2.936,3.954,5.831,3.954
			c1.875,0,4.362-0.693,4.362-3.017c0-2.324-3.181-2.772-4.893-3.14c-4.975-1.02-9.867-2.487-9.867-8.603
			c0-2.609,1.02-4.893,3.018-6.564c2.038-1.713,4.444-2.283,7.013-2.283c4.893,0,8.888,1.713,10.601,6.564L98.901,33.566z"/>
	</g>
	<g enable-background="new    ">
		<path d="M17.47,60.637h-2.026v6.479h-1.885v-6.479H11.51v-1.602h5.96V60.637z"/>
		<path d="M24.695,67.116h-1.885v-3.334h-2.497v3.334h-1.885v-8.08h1.885v3.156h2.497v-3.156h1.885V67.116z"/>
		<path d="M28.116,60.602v1.637h3.062v1.52h-3.062v1.791h3.887v1.566h-5.772v-8.08h5.772v1.566H28.116z"/>
		<path d="M42.823,67.116h-1.614l-3.098-5.43h-0.047v5.43h-1.46v-8.08h2.038l2.698,4.746h0.023v-4.746h1.461V67.116z"/>
		<path d="M46.268,60.602v1.637h3.062v1.52h-3.062v1.791h3.887v1.566h-5.772v-8.08h5.772v1.566H46.268z"/>
		<path d="M58.924,67.116h-1.861l-1.319-5.348H55.72l-1.272,5.348h-1.838l-2.085-8.08h1.932l1.237,5.441h0.023l1.308-5.441h1.744
			l1.354,5.441h0.023l0.071-0.354l1.178-5.088h1.555L58.924,67.116z"/>
		<path d="M69.451,61.344c-0.235-0.684-0.672-0.955-1.391-0.955c-0.506,0-1.118,0.131-1.118,0.754c0,0.59,0.706,0.73,1.166,0.814
			c0.659,0.141,1.543,0.305,2.108,0.682c0.66,0.438,1.061,1.107,1.061,1.908c0,0.791-0.377,1.545-1.002,2.027
			c-0.647,0.506-1.531,0.66-2.344,0.66c-1.52,0-2.898-0.66-3.264-2.238l1.744-0.4c0.235,0.848,0.848,1.143,1.685,1.143
			c0.542,0,1.261-0.201,1.261-0.873s-0.92-0.801-1.414-0.906c-1.438-0.295-2.851-0.719-2.851-2.486c0-0.754,0.294-1.412,0.872-1.896
			c0.588-0.494,1.283-0.66,2.025-0.66c1.414,0,2.568,0.496,3.062,1.898L69.451,61.344z"/>
		<path d="M76.994,62.169c-0.012-0.895-0.317-1.73-1.354-1.73c-1.332,0-1.461,1.742-1.461,2.721c0,1.107,0.129,2.531,1.555,2.531
			c0.883,0,1.296-0.742,1.402-1.52l1.837,0.119c-0.2,1.85-1.473,2.945-3.333,2.945c-2.404,0-3.57-1.957-3.57-4.158
			c0-2.238,1.202-4.16,3.629-4.16c2.025,0,3.062,1.18,3.274,3.123L76.994,62.169z"/>
		<path d="M86.459,67.116h-1.885v-3.334h-2.497v3.334h-1.885v-8.08h1.885v3.156h2.497v-3.156h1.885V67.116z"/>
		<path d="M88.502,65.962c-0.59-0.836-0.849-1.885-0.849-2.898c0-2.143,1.072-4.146,3.464-4.146c1.071,0,1.92,0.354,2.567,1.238
			c0.577,0.789,0.872,1.932,0.872,2.908c0,0.92-0.248,2.039-0.766,2.805c-0.625,0.918-1.579,1.367-2.674,1.367
			C90.021,67.235,89.138,66.858,88.502,65.962z M89.892,61.38c-0.188,0.482-0.259,1.178-0.259,1.684
			c0,1.014,0.152,2.627,1.484,2.627c0.647,0,1.001-0.316,1.213-0.918c0.188-0.494,0.247-1.166,0.247-1.695
			c0-0.59-0.059-1.285-0.294-1.826c-0.236-0.543-0.578-0.789-1.166-0.789C90.469,60.462,90.115,60.79,89.892,61.38z"/>
		<path d="M96.281,65.962c-0.59-0.836-0.849-1.885-0.849-2.898c0-2.143,1.072-4.146,3.464-4.146c1.071,0,1.92,0.354,2.567,1.238
			c0.577,0.789,0.872,1.932,0.872,2.908c0,0.92-0.248,2.039-0.766,2.805c-0.625,0.918-1.579,1.367-2.674,1.367
			C97.801,67.235,96.917,66.858,96.281,65.962z M97.671,61.38c-0.188,0.482-0.259,1.178-0.259,1.684
			c0,1.014,0.152,2.627,1.484,2.627c0.647,0,1.001-0.316,1.213-0.918c0.188-0.494,0.247-1.166,0.247-1.695
			c0-0.59-0.059-1.285-0.294-1.826c-0.236-0.543-0.578-0.789-1.166-0.789C98.248,60.462,97.895,60.79,97.671,61.38z"/>
		<path d="M108.643,65.514v1.602h-5.137v-8.08h1.885v6.479H108.643z"/>
	</g>
</g>
</svg>
