<?xml version="1.0" encoding="utf-8"?>
<!-- Generator: Adobe Illustrator 16.0.0, SVG Export Plug-In . SVG Version: 6.00 Build 0)  -->
<!DOCTYPE svg PUBLIC "-//W3C//DTD SVG 1.1//EN" "http://www.w3.org/Graphics/SVG/1.1/DTD/svg11.dtd">
<svg version="1.1" id="Layer_1" xmlns="http://www.w3.org/2000/svg" xmlns:xlink="http://www.w3.org/1999/xlink" x="0px" y="0px"
	 width="39.974px" height="39.974px" viewBox="0 0 39.974 39.974" enable-background="new 0 0 39.974 39.974" xml:space="preserve">
<circle fill="#3AA3C5" cx="19.986" cy="19.987" r="19.661"/>
<g>
	<path fill="#FFFFFF" d="M11.843,16h4v12h-4V16z M13.94,10.27c1.173,0,2.127,0.953,2.127,2.127c0,1.174-0.954,2.128-2.127,2.128
		c-1.176,0-2.127-0.954-2.127-2.128C11.813,11.223,12.765,10.27,13.94,10.27"/>
	<path fill="#FFFFFF" d="M16.843,16h4v2h0.804c0.489-1,1.35-2.031,3.135-2.031c3.714,0,4.062,2.319,4.062,5.499V28h-4v-5.798
		c0-1.37,0.027-3.13-1.854-3.13c-1.908,0-2.146,1.492-2.146,3.031V28h-4V16z"/>
</g>
</svg>
