<?xml version="1.0" encoding="utf-8"?>
<!-- Generator: Adobe Illustrator 16.0.0, SVG Export Plug-In . SVG Version: 6.00 Build 0)  -->
<!DOCTYPE svg PUBLIC "-//W3C//DTD SVG 1.1//EN" "http://www.w3.org/Graphics/SVG/1.1/DTD/svg11.dtd">
<svg version="1.1" id="Microsoft" xmlns="http://www.w3.org/2000/svg" xmlns:xlink="http://www.w3.org/1999/xlink" x="0px" y="0px"
	 width="120px" height="91.765px" viewBox="25 19.118 120 91.765" enable-background="new 25 19.118 120 91.765"
	 xml:space="preserve">
<rect x="18.183" y="-181.5" width="170" height="130"/>
<g>
	<g>
		<g>
			<path fill="#231F20" d="M58.849,97.501L58.849,97.501c-1.982,0-3.863-0.678-5.296-1.908c-1.516-1.303-2.35-3.054-2.35-4.932
				l-0.001-53.992c0-3.772,3.43-6.839,7.646-6.839l52.199-0.001c4.215,0,7.644,3.068,7.644,6.838l0.003,53.995
				c-0.001,3.772-3.432,6.838-7.645,6.838L58.849,97.501z M111.048,33.661l-52.199,0.001c-2.068,0-3.813,1.377-3.813,3.007v53.993
				c0,0.74,0.361,1.462,1.016,2.023c0.738,0.633,1.732,0.982,2.798,0.982h52.201c2.064,0,3.811-1.376,3.811-3.007l-0.001-53.994
				C114.859,35.038,113.114,33.661,111.048,33.661z"/>
			<g>
				<defs>
					<path id="SVGID_1_" d="M58.849,31.746l52.199-0.001c3.151,0,5.728,2.215,5.728,4.922l0.002,53.995
						c0,2.706-2.576,4.922-5.728,4.922l-52.201,0.002c-3.152,0-5.73-2.216-5.729-4.924c0-26.356-0.001-28.951-0.001-53.993
						C53.118,33.961,55.696,31.746,58.849,31.746z"/>
				</defs>
				<clipPath id="SVGID_2_">
					<use xlink:href="#SVGID_1_"  overflow="visible"/>
				</clipPath>
				<g clip-path="url(#SVGID_2_)">
					<rect x="56.931" y="32.901" fill="#231F20" width="1.193" height="61.435"/>
					<rect x="59.191" y="32.901" fill="#231F20" width="1.192" height="61.435"/>
					<rect x="61.452" y="32.901" fill="#231F20" width="1.193" height="61.435"/>
					<rect x="63.712" y="32.901" fill="#231F20" width="1.194" height="61.435"/>
					<rect x="65.973" y="32.901" fill="#231F20" width="1.195" height="61.435"/>
					<rect x="68.235" y="32.901" fill="#231F20" width="1.193" height="61.435"/>
					<rect x="70.495" y="32.901" fill="#231F20" width="1.193" height="61.435"/>
					<rect x="72.756" y="32.901" fill="#231F20" width="1.193" height="61.435"/>
					<rect x="75.018" y="32.901" fill="#231F20" width="1.193" height="61.435"/>
					<rect x="77.279" y="32.901" fill="#231F20" width="1.193" height="61.435"/>
					<rect x="79.54" y="32.901" fill="#231F20" width="1.192" height="61.435"/>
					<rect x="81.801" y="32.901" fill="#231F20" width="1.194" height="61.435"/>
					<rect x="84.062" y="32.901" fill="#231F20" width="1.192" height="61.435"/>
					<rect x="86.323" y="32.899" fill="#231F20" width="1.193" height="61.437"/>
					<rect x="88.583" y="32.901" fill="#231F20" width="1.193" height="61.435"/>
					<rect x="90.845" y="32.901" fill="#231F20" width="1.193" height="61.435"/>
					<rect x="93.105" y="32.899" fill="#231F20" width="1.194" height="61.437"/>
					<rect x="95.367" y="32.901" fill="#231F20" width="1.193" height="61.435"/>
					<rect x="97.627" y="32.899" fill="#231F20" width="1.193" height="61.437"/>
					<rect x="99.888" y="32.901" fill="#231F20" width="1.194" height="61.435"/>
					<rect x="102.148" y="32.899" fill="#231F20" width="1.192" height="61.437"/>
					<rect x="104.411" y="32.899" fill="#231F20" width="1.192" height="61.437"/>
					<rect x="106.669" y="32.899" fill="#231F20" width="1.196" height="61.437"/>
					<rect x="108.932" y="32.899" fill="#231F20" width="1.194" height="61.437"/>
					<rect x="111.192" y="32.899" fill="#231F20" width="1.193" height="61.437"/>
					<path fill-rule="evenodd" clip-rule="evenodd" fill="#FFFFFF" d="M84.947,84.15c16.966-0.002,30.803-8.207,30.803-18.27
						s-13.837-18.269-30.803-18.269c-16.965,0-30.802,8.208-30.802,18.269C54.146,75.943,67.982,84.15,84.947,84.15z"/>
				</g>
			</g>
			<path fill="#231F20" d="M84.499,78.778h-0.003c-9.227,0-16.733-7.382-16.733-16.454s7.507-16.454,16.735-16.454
				c9.228,0,16.735,7.381,16.736,16.454C101.234,71.396,93.728,78.778,84.499,78.778z M84.498,48.061
				c-8.02,0-14.546,6.399-14.546,14.264s6.525,14.263,14.544,14.263v1.095l0.003-1.095c8.02,0,14.545-6.398,14.545-14.263
				C99.043,54.459,92.518,48.061,84.498,48.061z"/>
			<path fill="#231F20" d="M58.849,97.501L58.849,97.501c-1.982,0-3.863-0.678-5.296-1.908c-1.516-1.303-2.35-3.054-2.35-4.932
				l-0.001-53.992c0-3.772,3.43-6.839,7.646-6.839l52.199-0.001c4.215,0,7.644,3.068,7.644,6.838l0.003,53.995
				c-0.001,3.772-3.432,6.838-7.645,6.838L58.849,97.501z M111.048,33.661l-52.199,0.001c-2.068,0-3.813,1.377-3.813,3.007v53.993
				c0,0.74,0.361,1.462,1.016,2.023c0.738,0.633,1.732,0.982,2.798,0.982h52.201c2.064,0,3.811-1.376,3.811-3.007l-0.001-53.994
				C114.859,35.038,113.114,33.661,111.048,33.661z"/>
			<path fill-rule="evenodd" clip-rule="evenodd" fill="#231F20" d="M84.499,71.541c5.273-0.001,9.576-4.357,9.576-9.703
				c0-5.342-4.303-9.699-9.577-9.699c-5.274,0-9.576,4.357-9.576,9.699C74.923,67.184,79.225,71.541,84.499,71.541z"/>
			<path fill-rule="evenodd" clip-rule="evenodd" fill="#FFFFFF" d="M50.982,68.145c0,0,11.254-14.064,24.818-14.873
				c13.562-0.811,10.256-3.557,20.179,0.161c9.925,3.719,13.895,5.335,13.895,5.335l-1.653-2.586c0,0-7.775-7.114-11.249-7.761
				c-3.472-0.647-15.548-3.232-23.487-0.809c-7.94,2.427-20.676,10.025-21.171,10.832C51.816,59.253,50.982,68.145,50.982,68.145z"
				/>
			<path fill="#231F20" d="M46.913,67.984c-0.359,0-0.721-0.117-1.023-0.358c-0.71-0.567-0.825-1.601-0.26-2.309
				c10.64-13.319,23.439-19.952,39.13-20.276c0.029,0,0.06,0,0.089,0.001c14.249,0.483,25.517,5.521,33.493,14.972
				c0.585,0.693,0.497,1.729-0.196,2.315c-0.694,0.584-1.729,0.497-2.315-0.197c-7.342-8.701-17.787-13.346-31.048-13.806
				c-14.635,0.315-26.603,6.543-36.585,19.04C47.873,67.774,47.395,67.984,46.913,67.984z"/>
			<path fill="#231F20" d="M49.286,73.324c-0.335,0-0.674-0.103-0.965-0.316c-0.733-0.531-0.896-1.561-0.361-2.292
				c9.06-12.449,21.038-19.207,35.603-20.088c0.023-0.001,0.049-0.002,0.072-0.002c11.596-0.18,22.116,3.59,33.046,11.863
				c0.723,0.547,0.866,1.578,0.318,2.301c-0.547,0.723-1.577,0.866-2.301,0.318c-10.084-7.632-19.731-11.205-30.291-11.205
				c-0.229,0-0.456,0.001-0.686,0.005c-13.711,0.84-24.541,6.971-33.107,18.74C50.293,73.089,49.793,73.324,49.286,73.324z"/>
		</g>
	</g>
</g>
</svg>
