<?xml version="1.0" encoding="utf-8"?>
<!-- Generator: Adobe Illustrator 16.0.0, SVG Export Plug-In . SVG Version: 6.00 Build 0)  -->
<!DOCTYPE svg PUBLIC "-//W3C//DTD SVG 1.1//EN" "http://www.w3.org/Graphics/SVG/1.1/DTD/svg11.dtd">
<svg version="1.1" id="Microsoft" xmlns="http://www.w3.org/2000/svg" xmlns:xlink="http://www.w3.org/1999/xlink" x="0px" y="0px"
	 width="120px" height="91.766px" viewBox="0 0 120 91.766" enable-background="new 0 0 120 91.766" xml:space="preserve">
<rect x="18.183" y="-181.5" width="170" height="130"/>
<g>
	<g>
		<path fill="none" d="M35.545,63.367c6.675,9.211,18.539,13.922,30.205,10.929c6.71-1.723,12.25-5.708,16.02-10.929"/>
		<path d="M51.235,14.643l1.708,4.812c12.973-2.656,25.922,2.928,31.47,15.928h5.26C83.696,19.383,67.397,10.944,51.235,14.643z"/>
		<path d="M65.75,74.311c-11.666,2.993-23.53-2.929-30.205-10.929h-5.741c5.938,9,16.986,16.65,28.863,16.65
			c2.734,0,5.515-0.336,8.283-1.046c9.018-2.313,16.226-8.604,20.561-15.604H81.77C78,68.383,72.46,72.589,65.75,74.311z"/>
		<path d="M42.961,23.323l-2.657-3.784c-5.865,3.863-10.194,7.844-12.658,15.844h5.255C35.087,29.383,38.509,26.255,42.961,23.323z"
			/>
		<path d="M51.258,19.103l-1.242-4.668l0.361-0.095c0.286-0.073,0.572-0.132,0.858-0.197l-0.932-2.486l-5.679,8.009l9.227,2.466
			l-0.908-3.426c-0.458,0.095-0.916,0.198-1.373,0.315L51.258,19.103z"/>
		<path d="M50.377,14.34l-0.361,0.095l1.242,4.668l0.312-0.082c0.458-0.117,0.916-0.22,1.373-0.315l-1.708-4.563
			C50.949,14.208,50.663,14.267,50.377,14.34z"/>
	</g>
	<g>
		<path d="M14.177,50.086h-3.483v8.196H4.751V31.908h10.971c6.415,0,8.791,2.534,8.791,7.484v3.247c0,3.288-1.189,5.505-3.841,6.614
			l6.375,9.029h-7.049L14.177,50.086z M18.574,39.948c0-1.981-0.753-2.773-3.169-2.773h-4.711v7.762h4.711
			c2.535,0,3.169-0.911,3.169-2.891V39.948z"/>
		<path d="M34.931,50.64v0.554c0,2.217,0.87,2.812,3.485,2.812c1.782,0,4.157-0.317,5.86-0.833l0.833,4.277
			c-1.743,0.634-4.555,1.229-7.249,1.229c-6.255,0-8.633-3.09-8.633-7.841v-4.514c0-4.159,1.862-7.723,8.277-7.723
			c6.416,0,7.802,3.801,7.802,7.998v4.042H34.931z M39.92,45.531c0-1.347-0.396-2.456-2.375-2.456s-2.613,1.109-2.613,2.456v0.832
			h4.989V45.531z"/>
		<path d="M60.714,58.282V45.531c0-0.872-0.396-1.387-1.387-1.387c-1.028,0-2.93,0.713-4.157,1.387v12.751h-5.702V38.997h4.236
			l0.594,1.465c2.376-1.148,5.465-1.861,7.682-1.861c3.287,0,4.435,2.455,4.435,6.177v13.504H60.714z"/>
		<path d="M76.081,50.64v0.554c0,2.217,0.872,2.812,3.486,2.812c1.781,0,4.156-0.317,5.86-0.833l0.831,4.277
			c-1.743,0.634-4.554,1.229-7.246,1.229c-6.258,0-8.633-3.09-8.633-7.841v-4.514c0-4.159,1.861-7.723,8.274-7.723
			c6.416,0,7.803,3.801,7.803,7.998v4.042H76.081z M81.07,45.531c0-1.347-0.395-2.456-2.377-2.456c-1.978,0-2.612,1.109-2.612,2.456
			v0.832h4.989V45.531z"/>
		<path d="M101.981,45.689l-3.721,12.593h-6.178l-3.327-19.285h5.228l1.82,11.285l3.367-11.285h5.703l3.324,11.285l1.823-11.285
			h5.227l-3.326,19.285h-6.178L101.981,45.689z"/>
	</g>
</g>
</svg>
