<?xml version="1.0" encoding="utf-8"?>
<!-- Generator: Adobe Illustrator 16.0.0, SVG Export Plug-In . SVG Version: 6.00 Build 0)  -->
<!DOCTYPE svg PUBLIC "-//W3C//DTD SVG 1.1//EN" "http://www.w3.org/Graphics/SVG/1.1/DTD/svg11.dtd">
<svg version="1.1" id="Layer_1" xmlns="http://www.w3.org/2000/svg" xmlns:xlink="http://www.w3.org/1999/xlink" x="0px" y="0px"
	 width="39.974px" height="39.974px" viewBox="0 0 39.974 39.974" enable-background="new 0 0 39.974 39.974" xml:space="preserve">
<circle fill="#3AA3C5" cx="19.986" cy="19.987" r="19.661"/>
<path fill="#FFFFFF" d="M29.491,15.051c-0.699,0.31-1.451,0.52-2.24,0.614c0.807-0.482,1.424-1.247,1.715-2.158
	c-0.752,0.447-1.588,0.771-2.477,0.946c-0.711-0.757-1.725-1.231-2.846-1.231c-2.154,0-3.902,1.746-3.902,3.9
	c0,0.306,0.035,0.604,0.102,0.889c-3.24-0.163-6.115-1.716-8.039-4.075c-0.336,0.576-0.527,1.246-0.527,1.961
	c0,1.353,0.986,2.546,2.033,3.247c-0.639-0.021-1.467-0.196-1.467-0.488c0,0.017,0,0.033,0,0.049c0,1.89,1.045,3.466,2.83,3.825
	c-0.328,0.089-0.822,0.137-1.178,0.137c-0.25,0-0.57-0.025-0.809-0.07c0.496,1.549,1.898,2.677,3.605,2.708
	c-1.336,1.046-3.035,1.669-4.861,1.669c-0.314,0-0.637-0.018-0.939-0.054c1.725,1.106,3.77,1.753,5.973,1.753
	c7.174,0,11.094-5.944,11.094-11.098c0-0.169-0.002-0.337-0.01-0.504C28.31,16.52,28.968,15.833,29.491,15.051z"/>
</svg>
