<?xml version="1.0" encoding="utf-8"?>
<!-- Generator: Adobe Illustrator 16.0.0, SVG Export Plug-In . SVG Version: 6.00 Build 0)  -->
<!DOCTYPE svg PUBLIC "-//W3C//DTD SVG 1.1//EN" "http://www.w3.org/Graphics/SVG/1.1/DTD/svg11.dtd">
<svg version="1.1" id="Microsoft" xmlns="http://www.w3.org/2000/svg" xmlns:xlink="http://www.w3.org/1999/xlink" x="0px" y="0px"
	 width="120px" height="91.765px" viewBox="25 19.118 120 91.765" enable-background="new 25 19.118 120 91.765"
	 xml:space="preserve">
<rect x="18.183" y="-181.5" width="170" height="130"/>
<g>
	<path d="M41.818,40.851c0,0.75-0.59,1.357-1.317,1.357c-0.729,0-1.32-0.607-1.32-1.357c0-0.747,0.591-1.355,1.32-1.355
		C41.229,39.496,41.818,40.104,41.818,40.851z"/>
	<path d="M45.776,40.851c0,0.75-0.593,1.357-1.322,1.357c-0.728,0-1.316-0.607-1.316-1.357c0-0.747,0.589-1.355,1.316-1.355
		C45.183,39.496,45.776,40.104,45.776,40.851z"/>
	<path d="M49.732,40.851c0,0.75-0.59,1.357-1.319,1.357c-0.728,0-1.32-0.607-1.32-1.357c0-0.747,0.592-1.355,1.32-1.355
		C49.142,39.496,49.732,40.104,49.732,40.851z"/>
	<path d="M53.688,40.851c0,0.75-0.591,1.357-1.318,1.357c-0.729,0-1.319-0.607-1.319-1.357c0-0.747,0.591-1.355,1.319-1.355
		C53.097,39.496,53.688,40.104,53.688,40.851z"/>
	<path d="M57.645,40.851c0,0.75-0.591,1.357-1.318,1.357c-0.73,0-1.322-0.607-1.322-1.357c0-0.747,0.592-1.355,1.322-1.355
		C57.054,39.496,57.645,40.104,57.645,40.851z"/>
	<ellipse cx="40.5" cy="44.922" rx="1.319" ry="1.355"/>
	<ellipse cx="44.457" cy="44.922" rx="1.319" ry="1.355"/>
	<ellipse cx="48.412" cy="44.922" rx="1.32" ry="1.355"/>
	<ellipse cx="52.369" cy="44.922" rx="1.319" ry="1.355"/>
	<ellipse cx="56.325" cy="44.922" rx="1.32" ry="1.355"/>
	<ellipse cx="48.412" cy="48.99" rx="1.32" ry="1.357"/>
	<ellipse cx="52.369" cy="48.99" rx="1.319" ry="1.357"/>
	<ellipse cx="56.325" cy="48.99" rx="1.32" ry="1.357"/>
	<ellipse cx="56.325" cy="53.06" rx="1.32" ry="1.358"/>
	<ellipse cx="52.369" cy="53.06" rx="1.319" ry="1.358"/>
	<ellipse cx="52.369" cy="57.13" rx="1.319" ry="1.356"/>
	<ellipse cx="56.325" cy="57.13" rx="1.32" ry="1.356"/>
	<ellipse cx="56.325" cy="61.2" rx="1.32" ry="1.356"/>
	<ellipse cx="56.325" cy="65.27" rx="1.32" ry="1.356"/>
	<ellipse cx="56.325" cy="69.338" rx="1.32" ry="1.357"/>
	<path d="M57.645,73.406c0,0.751-0.591,1.358-1.318,1.358c-0.73,0-1.322-0.607-1.322-1.358c0-0.747,0.592-1.354,1.322-1.354
		C57.054,72.052,57.645,72.659,57.645,73.406z"/>
	<ellipse cx="52.369" cy="69.338" rx="1.319" ry="1.357"/>
	<path d="M53.688,73.406c0,0.751-0.591,1.358-1.318,1.358c-0.729,0-1.319-0.607-1.319-1.358c0-0.747,0.591-1.354,1.319-1.354
		C53.097,72.052,53.688,72.659,53.688,73.406z"/>
	<ellipse cx="52.369" cy="77.479" rx="1.319" ry="1.354"/>
	<ellipse cx="52.369" cy="81.547" rx="1.319" ry="1.358"/>
	<ellipse cx="48.412" cy="77.479" rx="1.32" ry="1.354"/>
	<ellipse cx="48.412" cy="81.547" rx="1.32" ry="1.358"/>
	<ellipse cx="44.457" cy="81.547" rx="1.319" ry="1.358"/>
	<ellipse cx="40.5" cy="81.547" rx="1.319" ry="1.358"/>
	<ellipse cx="40.5" cy="85.616" rx="1.319" ry="1.358"/>
	<path d="M45.776,85.616c0,0.751-0.593,1.358-1.322,1.358c-0.728,0-1.316-0.607-1.316-1.358c0-0.748,0.589-1.355,1.316-1.355
		C45.183,84.261,45.776,84.868,45.776,85.616z"/>
	<ellipse cx="48.412" cy="85.616" rx="1.32" ry="1.358"/>
	<ellipse cx="52.369" cy="85.616" rx="1.319" ry="1.358"/>
	<ellipse cx="56.325" cy="85.616" rx="1.32" ry="1.358"/>
	<path d="M49.732,73.406c0,0.751-0.59,1.358-1.319,1.358c-0.728,0-1.32-0.607-1.32-1.358c0-0.747,0.592-1.354,1.32-1.354
		C49.142,72.052,49.732,72.659,49.732,73.406z"/>
	<ellipse cx="60.282" cy="57.13" rx="1.319" ry="1.356"/>
	<ellipse cx="60.282" cy="61.2" rx="1.319" ry="1.356"/>
	<ellipse cx="60.282" cy="65.27" rx="1.319" ry="1.356"/>
	<ellipse cx="60.282" cy="69.338" rx="1.319" ry="1.357"/>
	<ellipse cx="64.239" cy="57.13" rx="1.319" ry="1.356"/>
	<ellipse cx="64.239" cy="61.2" rx="1.319" ry="1.356"/>
	<ellipse cx="64.239" cy="65.27" rx="1.319" ry="1.356"/>
	<ellipse cx="64.239" cy="69.338" rx="1.319" ry="1.357"/>
	<path d="M65.558,73.406c0,0.751-0.59,1.358-1.318,1.358c-0.729,0-1.319-0.607-1.319-1.358c0-0.747,0.59-1.354,1.319-1.354
		C64.968,72.052,65.558,72.659,65.558,73.406z"/>
	<ellipse cx="68.195" cy="57.13" rx="1.319" ry="1.356"/>
	<ellipse cx="68.195" cy="61.2" rx="1.319" ry="1.356"/>
	<ellipse cx="68.195" cy="65.27" rx="1.319" ry="1.356"/>
	<ellipse cx="68.195" cy="69.338" rx="1.319" ry="1.357"/>
	<path d="M69.514,73.406c0,0.751-0.59,1.358-1.318,1.358s-1.32-0.607-1.32-1.358c0-0.747,0.591-1.354,1.32-1.354
		S69.514,72.659,69.514,73.406z"/>
	<ellipse cx="68.195" cy="77.479" rx="1.319" ry="1.354"/>
	<ellipse cx="68.195" cy="81.547" rx="1.319" ry="1.358"/>
	<ellipse cx="72.152" cy="81.547" rx="1.318" ry="1.358"/>
	<ellipse cx="76.108" cy="81.547" rx="1.318" ry="1.358"/>
	<ellipse cx="80.064" cy="81.547" rx="1.319" ry="1.358"/>
	<ellipse cx="84.022" cy="81.547" rx="1.319" ry="1.358"/>
	<ellipse cx="87.977" cy="81.547" rx="1.318" ry="1.358"/>
	<ellipse cx="91.934" cy="81.547" rx="1.318" ry="1.358"/>
	<ellipse cx="91.934" cy="77.479" rx="1.318" ry="1.354"/>
	<path d="M93.252,73.406c0,0.751-0.591,1.358-1.318,1.358c-0.729,0-1.318-0.607-1.318-1.358c0-0.747,0.59-1.354,1.318-1.354
		C92.661,72.052,93.252,72.659,93.252,73.406z"/>
	<ellipse cx="95.89" cy="81.547" rx="1.319" ry="1.358"/>
	<ellipse cx="95.89" cy="77.479" rx="1.319" ry="1.354"/>
	<path d="M97.209,73.406c0,0.751-0.591,1.358-1.318,1.358c-0.729,0-1.32-0.607-1.32-1.358c0-0.747,0.592-1.354,1.32-1.354
		C96.618,72.052,97.209,72.659,97.209,73.406z"/>
	<ellipse cx="95.89" cy="69.338" rx="1.319" ry="1.357"/>
	<ellipse cx="95.89" cy="65.27" rx="1.319" ry="1.356"/>
	<ellipse cx="95.89" cy="61.2" rx="1.319" ry="1.356"/>
	<path d="M101.166,73.406c0,0.751-0.591,1.358-1.32,1.358c-0.729,0-1.316-0.607-1.316-1.358c0-0.747,0.588-1.354,1.316-1.354
		C100.575,72.052,101.166,72.659,101.166,73.406z"/>
	<ellipse cx="99.848" cy="69.338" rx="1.318" ry="1.357"/>
	<ellipse cx="99.848" cy="65.27" rx="1.318" ry="1.356"/>
	<ellipse cx="99.848" cy="61.2" rx="1.318" ry="1.356"/>
	<ellipse cx="99.848" cy="57.13" rx="1.318" ry="1.356"/>
	<path d="M101.166,53.06c0,0.75-0.591,1.358-1.32,1.358c-0.729,0-1.316-0.608-1.316-1.358c0-0.748,0.588-1.355,1.316-1.355
		C100.575,51.705,101.166,52.312,101.166,53.06z"/>
	<ellipse cx="99.848" cy="48.99" rx="1.318" ry="1.357"/>
	<ellipse cx="103.803" cy="61.2" rx="1.319" ry="1.356"/>
	<ellipse cx="103.803" cy="57.13" rx="1.319" ry="1.356"/>
	<ellipse cx="103.803" cy="53.06" rx="1.319" ry="1.358"/>
	<ellipse cx="103.803" cy="48.99" rx="1.319" ry="1.357"/>
	<ellipse cx="103.803" cy="44.922" rx="1.319" ry="1.355"/>
	<path d="M105.122,40.851c0,0.75-0.592,1.357-1.319,1.357c-0.729,0-1.319-0.607-1.319-1.357c0-0.747,0.591-1.355,1.319-1.355
		C104.53,39.496,105.122,40.104,105.122,40.851z"/>
	<ellipse cx="107.76" cy="53.06" rx="1.318" ry="1.358"/>
	<ellipse cx="107.76" cy="48.99" rx="1.318" ry="1.357"/>
	<ellipse cx="107.76" cy="44.922" rx="1.318" ry="1.355"/>
	<path d="M109.078,40.851c0,0.75-0.59,1.357-1.318,1.357s-1.318-0.607-1.318-1.357c0-0.747,0.59-1.355,1.318-1.355
		S109.078,40.104,109.078,40.851z"/>
	<ellipse cx="111.717" cy="53.06" rx="1.318" ry="1.358"/>
	<ellipse cx="111.717" cy="48.99" rx="1.318" ry="1.357"/>
	<ellipse cx="111.717" cy="44.922" rx="1.318" ry="1.355"/>
	<path d="M113.035,40.851c0,0.75-0.591,1.357-1.318,1.357c-0.729,0-1.318-0.607-1.318-1.357c0-0.747,0.59-1.355,1.318-1.355
		C112.444,39.496,113.035,40.104,113.035,40.851z"/>
	<ellipse cx="115.672" cy="53.06" rx="1.32" ry="1.358"/>
	<ellipse cx="115.672" cy="48.99" rx="1.32" ry="1.357"/>
	<path d="M105.122,73.406c0,0.751-0.592,1.358-1.319,1.358c-0.729,0-1.319-0.607-1.319-1.358c0-0.747,0.591-1.354,1.319-1.354
		C104.53,72.052,105.122,72.659,105.122,73.406z"/>
	<ellipse cx="103.803" cy="69.338" rx="1.319" ry="1.357"/>
	<path d="M109.078,73.406c0,0.751-0.59,1.358-1.318,1.358s-1.318-0.607-1.318-1.358c0-0.747,0.59-1.354,1.318-1.354
		S109.078,72.659,109.078,73.406z"/>
	<ellipse cx="107.76" cy="69.338" rx="1.318" ry="1.357"/>
	<path d="M113.035,73.406c0,0.751-0.591,1.358-1.318,1.358c-0.729,0-1.318-0.607-1.318-1.358c0-0.747,0.59-1.354,1.318-1.354
		C112.444,72.052,113.035,72.659,113.035,73.406z"/>
	<ellipse cx="111.717" cy="69.338" rx="1.318" ry="1.357"/>
	<path d="M116.992,73.406c0,0.751-0.591,1.358-1.32,1.358c-0.729,0-1.319-0.607-1.319-1.358c0-0.747,0.591-1.354,1.319-1.354
		C116.401,72.052,116.992,72.659,116.992,73.406z"/>
	<ellipse cx="115.672" cy="69.338" rx="1.32" ry="1.357"/>
	<ellipse cx="115.672" cy="65.27" rx="1.32" ry="1.356"/>
	<path d="M120.947,73.406c0,0.751-0.591,1.358-1.318,1.358s-1.318-0.607-1.318-1.358c0-0.747,0.591-1.354,1.318-1.354
		S120.947,72.659,120.947,73.406z"/>
	<ellipse cx="119.629" cy="69.338" rx="1.318" ry="1.357"/>
	<ellipse cx="119.629" cy="65.27" rx="1.318" ry="1.356"/>
	<ellipse cx="119.629" cy="61.2" rx="1.318" ry="1.356"/>
	<ellipse cx="119.629" cy="57.13" rx="1.318" ry="1.356"/>
	<ellipse cx="115.672" cy="61.2" rx="1.32" ry="1.356"/>
	<ellipse cx="115.672" cy="57.13" rx="1.32" ry="1.356"/>
	<ellipse cx="111.717" cy="61.2" rx="1.318" ry="1.356"/>
	<ellipse cx="111.717" cy="57.13" rx="1.318" ry="1.356"/>
	<ellipse cx="119.629" cy="77.479" rx="1.318" ry="1.354"/>
	<ellipse cx="119.629" cy="81.547" rx="1.318" ry="1.358"/>
	<ellipse cx="115.672" cy="81.547" rx="1.32" ry="1.358"/>
	<ellipse cx="115.672" cy="85.616" rx="1.32" ry="1.358"/>
	<ellipse cx="119.629" cy="85.616" rx="1.318" ry="1.358"/>
	<ellipse cx="123.586" cy="85.616" rx="1.319" ry="1.358"/>
	<ellipse cx="127.542" cy="85.616" rx="1.319" ry="1.358"/>
	<ellipse cx="131.499" cy="85.616" rx="1.319" ry="1.358"/>
	<path d="M124.905,73.406c0,0.751-0.591,1.358-1.32,1.358c-0.727,0-1.317-0.607-1.317-1.358c0-0.747,0.591-1.354,1.317-1.354
		C124.314,72.052,124.905,72.659,124.905,73.406z"/>
	<ellipse cx="123.586" cy="69.338" rx="1.319" ry="1.357"/>
	<ellipse cx="123.586" cy="77.479" rx="1.319" ry="1.354"/>
	<ellipse cx="123.586" cy="81.547" rx="1.319" ry="1.358"/>
	<ellipse cx="127.542" cy="81.547" rx="1.319" ry="1.358"/>
	<ellipse cx="131.499" cy="81.547" rx="1.319" ry="1.358"/>
	<ellipse cx="72.152" cy="85.616" rx="1.318" ry="1.358"/>
	<ellipse cx="76.108" cy="85.616" rx="1.318" ry="1.358"/>
	<ellipse cx="80.064" cy="85.616" rx="1.319" ry="1.358"/>
	<ellipse cx="84.022" cy="85.616" rx="1.319" ry="1.358"/>
	<ellipse cx="87.977" cy="85.616" rx="1.318" ry="1.358"/>
	<ellipse cx="91.934" cy="85.616" rx="1.318" ry="1.358"/>
	<ellipse cx="95.89" cy="85.616" rx="1.319" ry="1.358"/>
	<ellipse cx="68.195" cy="85.616" rx="1.319" ry="1.358"/>
	<ellipse cx="72.152" cy="69.338" rx="1.318" ry="1.357"/>
	<path d="M73.471,73.406c0,0.751-0.591,1.358-1.318,1.358c-0.729,0-1.318-0.607-1.318-1.358c0-0.747,0.59-1.354,1.318-1.354
		C72.879,72.052,73.471,72.659,73.471,73.406z"/>
	<ellipse cx="72.152" cy="77.479" rx="1.318" ry="1.354"/>
	<ellipse cx="76.108" cy="77.479" rx="1.318" ry="1.354"/>
	<ellipse cx="72.152" cy="57.13" rx="1.318" ry="1.356"/>
	<ellipse cx="68.195" cy="53.06" rx="1.319" ry="1.358"/>
	<ellipse cx="72.152" cy="53.06" rx="1.318" ry="1.358"/>
	<ellipse cx="68.195" cy="48.99" rx="1.319" ry="1.357"/>
	<ellipse cx="72.152" cy="48.99" rx="1.318" ry="1.357"/>
	<ellipse cx="76.108" cy="48.99" rx="1.318" ry="1.357"/>
	<ellipse cx="68.195" cy="44.922" rx="1.319" ry="1.355"/>
	<ellipse cx="72.152" cy="44.922" rx="1.318" ry="1.355"/>
	<ellipse cx="76.108" cy="44.922" rx="1.318" ry="1.355"/>
	<ellipse cx="80.064" cy="44.922" rx="1.319" ry="1.355"/>
	<ellipse cx="84.022" cy="44.922" rx="1.319" ry="1.355"/>
	<path d="M85.341,40.851c0,0.75-0.593,1.357-1.319,1.357c-0.729,0-1.319-0.607-1.319-1.357c0-0.747,0.59-1.355,1.319-1.355
		C84.748,39.496,85.341,40.104,85.341,40.851z"/>
	<path d="M81.383,40.851c0,0.75-0.592,1.357-1.32,1.357c-0.727,0-1.318-0.607-1.318-1.357c0-0.747,0.591-1.355,1.318-1.355
		C80.792,39.496,81.383,40.104,81.383,40.851z"/>
	<path d="M77.426,40.851c0,0.75-0.588,1.357-1.318,1.357c-0.729,0-1.318-0.607-1.318-1.357c0-0.747,0.589-1.355,1.318-1.355
		C76.838,39.496,77.426,40.104,77.426,40.851z"/>
	<path d="M73.471,40.851c0,0.75-0.591,1.357-1.318,1.357c-0.729,0-1.318-0.607-1.318-1.357c0-0.747,0.59-1.355,1.318-1.355
		C72.879,39.496,73.471,40.104,73.471,40.851z"/>
	<path d="M69.514,40.851c0,0.75-0.59,1.357-1.318,1.357s-1.32-0.607-1.32-1.357c0-0.747,0.591-1.355,1.32-1.355
		S69.514,40.104,69.514,40.851z"/>
	<ellipse cx="48.412" cy="53.06" rx="1.32" ry="1.358"/>
</g>
</svg>
